<?xml version="1.0" standalone="no"?>
<!DOCTYPE svg PUBLIC "-//W3C//DTD SVG 1.1//EN" "http://www.w3.org/Graphics/SVG/1.1/DTD/svg11.dtd" >
<svg xmlns="http://www.w3.org/2000/svg">
<metadata>
Created by FontPrep 20130207 at Fri Apr  3 12:44:17 2015
 By Dragana Trgovcevic
Copyright (c) 2008 by Art. Lebedev Studio. All rights reserved.
</metadata>
<defs>
<font id="e139b6ce407c13ad713a4e3e41760e96" horiz-adv-x='1024' >
  <font-face
    font-family="Zheldor"
    font-weight="400"
    font-stretch="normal"
    units-per-em="2048"
    panose-1="2 0 5 6 0 0 0 2 0 4"
    ascent="1638"
    descent="-410"
    x-height="1427"
    cap-height="1466"
    bbox="-23.0769 -514 1671 1924.85"
    underline-thickness="102"
    underline-position="-102"
    unicode-range="U+0020-2265"
  />
<missing-glyph horiz-adv-x="530"
 />
    <glyph glyph-name=".notdef" horiz-adv-x="530"
 />
    <glyph glyph-name=".null" horiz-adv-x="0"
 />
    <glyph glyph-name="nonmarkingreturn" horiz-adv-x="681"
 />
    <glyph glyph-name="space" unicode=" " horiz-adv-x="530"
 />
    <glyph glyph-name="exclam" unicode="!" horiz-adv-x="583"
d="M233 242h77l112 2l6 -217v-54q-48 -10 -152 -10t-133 4q1 57 5 104t6 99t4 76q29 -4 75 -4zM303 365q-90 0 -121 -3q6 80 6 146v559l-2 440l254 -2v-24l-37 -1114q-10 -2 -100 -2z" />
    <glyph glyph-name="quotedbl" unicode="&#x22;" horiz-adv-x="835"
d="M481 1175q0 220 6 330q117 6 246 -6q-20 -295 -33 -610q-20 -4 -86 -4l-89 -2q-24 0 -40 2q-4 70 -4 290zM240 885h-136q-2 27 -1 129t3 129l7 342q2 10 2 20q116 6 245 -6l-34 -610q-20 -4 -86 -4z" />
    <glyph glyph-name="numbersign" unicode="#" horiz-adv-x="1556"
d="M891 711l37 123q-162 -4 -281 6q-12 -133 -47 -230q104 12 274 0q1 19 17 101zM909 -6l-110 2h-99q8 36 44 154t81 294q-92 -16 -266 -2l-27 -106q-4 -26 -38 -176t-41 -166l-103 2h-119q8 37 49 174t70 266q-205 -4 -248 -4l33 199l258 -13q47 205 51 222q-123 4 -292 4
q10 43 34 188l297 -10q82 365 101 428q145 4 254 0q-2 -4 -20 -70t-50 -171q-31 -105 -55 -189q166 0 250 -6q84 352 120 442q176 -4 224 -6l-129 -442q152 -4 266 -4l-27 -191q-86 0 -295 6q-23 -111 -55 -213q297 4 317 2l-26 -178q-178 0 -334 12l-27 -106
q-2 -14 -42 -170t-46 -172z" />
    <glyph glyph-name="dollar" unicode="$" horiz-adv-x="1011"
d="M479 268q88 0 135 -2q-20 293 -8 439q-115 -12 -354 -9q-20 31 -76 84q-55 53 -70 74q0 31 5 179q4 148 -2 198q53 90 129 211l131 -4l4 120q0 36 -4 82q57 12 245 -6q-14 -160 -20 -190q12 2 94 12q27 -18 69 -45q43 -27 71 -47t46 -45q-10 -92 0 -277q-113 6 -235 -4
q-2 25 10 197q-205 -16 -301 0q20 -223 4 -363q7 10 408 2q39 -49 123 -124q0 -264 26 -631q-8 -7 -48 -55t-62 -68l-189 8l6 -194q-31 -6 -106 -7l-93 -2q-26 0 -42 2q3 37 4 98q2 62 4 99q-72 -6 -166 -23q-25 29 -67 59t-48 36q20 313 17 426q63 -6 237 -6
q-12 -180 -16 -230q51 6 139 6z" />
    <glyph glyph-name="percent" unicode="%" horiz-adv-x="1597"
d="M426 1354q-49 -10 -137 -6q0 -50 -8 -178t-19 -171q90 10 166 9q-12 192 -2 346zM104 1532l379 4q59 0 174 -4q-9 -124 -33 -372t-28 -298q-143 -6 -485 -26q-6 90 -7 696zM1284 555q-49 -10 -137 -6q0 -51 -8 -178t-19 -170q90 10 166 8q-12 192 -2 346zM942 672l379 4
q59 0 174 -4q-9 -123 -33 -372q-24 -248 -28 -298q-143 -6 -486 -27q-6 90 -6 697zM1100 1536l153 -66l-897 -1620q-28 18 -76 38t-79 36q20 39 406 717t493 895z" />
    <glyph glyph-name="ampersand" unicode="&#x26;" horiz-adv-x="1435"
d="M594 1074q0 -108 -8 -169q36 17 104 57t115 58q-10 199 -10 211q-86 -12 -205 0q4 -49 4 -157zM444 356q0 -152 -8 -192q27 2 299 -14l53 47q-336 340 -360 393q16 -82 16 -234zM813 1460h172q2 -74 2 -102t-6 -160q-6 -130 -6 -311q-285 -137 -340 -162q74 -68 332 -354
q157 157 245 266q14 -14 66 -53t96 -82l-276 -264q143 -152 211 -220q-25 -20 -91 -82t-104 -92q-80 106 -196 222l-109 -105q-86 2 -263 1t-347 11q0 766 -4 820q-3 53 -7 79t-4 29q66 6 152 6q-23 430 -19 543q81 -2 259 4t237 6z" />
    <glyph glyph-name="quotesingle" unicode="'" horiz-adv-x="417"
d="M84 1175q0 220 6 330q117 6 246 -6q-20 -295 -33 -610q-20 -4 -86 -4l-89 -2q-24 0 -40 2q-4 70 -4 290z" />
    <glyph glyph-name="parenleft" unicode="(" horiz-adv-x="661"
d="M102 639q0 537 234 905q49 -34 136 -68t95 -42q-2 -6 -58 -109t-73 -157q-53 -165 -70 -266q-16 -101 -16 -206q0 -295 45 -477t185 -391l-103 -57q-375 461 -375 868z" />
    <glyph glyph-name="parenright" unicode=")" horiz-adv-x="710"
d="M606 642q0 -198 -90 -450t-211 -411q-37 29 -122 71t-101 54q106 141 194 393q88 251 88 407t-8 224q-39 301 -168 579q8 5 52 21t57 26q135 -180 222 -448t87 -466z" />
    <glyph glyph-name="asterisk" unicode="*" horiz-adv-x="890"
d="M449 1081l-170 -202q-23 18 -83 71t-81 70q125 125 188 192q-90 72 -201 168q26 29 87 88q61 60 83 82q37 -49 177 -192q44 41 98 110q53 68 69 88q12 -12 70 -58t88 -77q-24 -29 -96 -95t-98 -97q44 -41 112 -88t96 -74q-18 -15 -69 -75t-94 -99q-18 14 -77 81
q-58 67 -99 107z" />
    <glyph glyph-name="plus" unicode="+"
d="M393 1018q90 0 228 12q14 -70 10 -223q88 14 209 14l4 -96q0 -85 4 -129q-57 -4 -199 -4q8 -145 23 -213q-29 -2 -121 -1t-123 -7q-10 47 -10 207q-80 -8 -223 -13q-4 145 -17 230q49 10 126 13t97 5z" />
    <glyph glyph-name="comma" unicode="," horiz-adv-x="571"
d="M310 264q74 0 110 2q8 -166 8 -282q-111 -184 -129 -209l-70 32l9 23q10 23 28 68t37 88q-106 0 -160 6q0 55 7 172q0 63 8 104q78 -4 152 -4z" />
    <glyph glyph-name="hyphen" unicode="-" horiz-adv-x="905"
d="M782 784l-12 -190l-647 6q4 41 0 186q252 22 659 -2z" />
    <glyph glyph-name="period" unicode="." horiz-adv-x="571"
d="M233 242h77l112 2l6 -217v-54q-48 -10 -152 -10t-133 4q1 57 5 104t6 99t4 76q29 -4 75 -4z" />
    <glyph glyph-name="slash" unicode="/" horiz-adv-x="972"
d="M993 1434q-137 -256 -390 -766t-388 -803q-29 17 -75 35t-79 34q129 236 402 764q272 528 407 801q44 -18 123 -65z" />
    <glyph glyph-name="zero" unicode="0"
d="M621 518q0 104 -3 321t7 412q-84 -12 -289 -6q4 -606 -27 -921q106 16 318 8q-6 82 -6 186zM918 1450l-52 -1255q-185 -175 -213 -199q-446 -16 -536 -21q-10 143 -11 360l9 902q49 51 105 119t85 94q152 4 325 4t288 -4z" />
    <glyph glyph-name="one" unicode="1"
d="M743 1450l-10 -821q0 -139 6 -391l131 2q0 -195 7 -260q-170 -20 -582 -21l-49 -2q0 92 -8 281q57 6 221 6q-9 136 -17 458t-10 375q-168 -139 -188 -157q-127 143 -138 157q82 74 179 190q96 116 139 191q40 0 150 -6t169 -2z" />
    <glyph glyph-name="two" unicode="2"
d="M636 229q204 0 306 11v-85q0 -47 12 -161q-131 4 -195 4q-65 0 -337 -4t-334 0q0 121 8 248t4 299q77 51 282 139q204 88 222 96q-4 147 10 330q-48 -8 -114 -8t-156 4q6 -55 6 -129t2 -109q-159 0 -280 -10l2 141l2 217q23 31 72 106q50 75 85 124q121 8 269 8l239 -2
q125 -150 142 -166l2 -180q0 -76 -9 -278t-6 -294q-89 -24 -118 -39t-104 -49q-76 -35 -172 -83t-144 -70q2 -20 2 -68q98 8 302 8z" />
    <glyph glyph-name="three" unicode="3"
d="M913 1460q0 -271 5 -276q-48 -60 -172 -160t-160 -139q61 -2 194 -2q14 -19 74 -81t88 -104q0 -8 -8 -125t-16 -239t-9 -135q-76 -96 -207 -236q-63 -2 -266 -6t-307 -12q-2 45 1 249t3 281q92 -6 256 2q0 -102 -20 -201q166 16 247 9q-4 37 1 151t16 180
q-188 -12 -336 -2q4 34 6 134t4 118q59 66 202 205q142 139 200 205q-264 -10 -379 0q16 -111 0 -248q-141 0 -246 -16q-4 186 12 432q88 2 422 8t395 8z" />
    <glyph glyph-name="four" unicode="4"
d="M313 567l205 -2h121q-25 313 0 617q-148 -250 -166 -279q-86 -127 -160 -209v-127zM870 0q-195 0 -252 -10q0 88 5 280q-96 -8 -568 -4q14 295 11 402q70 80 266 376t258 408q86 -12 162 -12t118 2q8 -721 -4 -873q18 0 105 6q-6 -29 -4 -151t2 -141q-86 -2 -111 -2
q-2 -74 5 -166t7 -115z" />
    <glyph glyph-name="five" unicode="5"
d="M899 670q0 -228 10 -363t13 -194q-23 -13 -75 -59t-89 -68q-74 0 -342 -12t-322 -21q-6 153 -2 277t0 196q80 10 262 10h39v-2q0 -207 -8 -266q49 8 332 8q-2 39 -7 137q-4 98 -12 222t-8 231q-70 -12 -170 -12t-114 2q6 -72 4 -113q-233 -12 -275 -12v139l-2 414l-2 171
v38l399 2q338 0 361 2q-2 -39 -2 -187q-25 2 -55 2l-129 -2l-285 2q8 -33 8 -137q139 10 328 10q20 -18 47 -47q27 -30 57 -62t41 -44q-2 -34 -2 -262z" />
    <glyph glyph-name="six" unicode="6"
d="M694 580q-170 0 -205 4q10 -152 -12 -437q123 14 221 0q-4 46 -4 433zM920 141l-154 -182q-191 5 -344 -1q-152 -7 -170 -7q-12 16 -146 182q25 383 3 1026q136 189 165 238q187 8 307 5q119 -3 154 -3q66 -58 156 -148q0 -86 10 -245q-6 0 -235 -9q10 164 2 217
q-182 -16 -299 -8q4 -46 7 -156t7 -167q92 -4 206 3t159 7q53 -74 143 -166q2 -113 13 -286t16 -300z" />
    <glyph glyph-name="seven" unicode="7"
d="M345 1458q89 0 307 -5t274 1q-14 -156 -12 -289q3 -132 4 -186q-36 -39 -174 -196t-185 -199q14 -315 14 -570q-18 0 -235 -10l2 340q0 49 3 169t-1 167q119 172 283 330q-4 14 -5 78t3 112q-180 -8 -238 2q10 -125 2 -225l-158 8q-35 0 -90 -6q2 86 1 255t5 214
q111 10 200 10z" />
    <glyph glyph-name="eight" unicode="8"
d="M657 514q-166 0 -354 35q10 -99 10 -228t-8 -169q27 2 155 15t249 -1l-7 213q0 78 11 141q-18 -6 -56 -6zM426 1006q0 -70 -8 -121q39 -4 104 -4h125q-14 45 -14 176v104q-94 -8 -219 10q12 -95 12 -165zM412 1438l270 10q72 0 166 -4q2 -45 0 -117t-2 -237l-6 -222
q88 4 121 0q0 -139 5 -372t3 -336q-92 -86 -209 -203l-688 6l12 922l195 6q2 78 -7 209q-8 131 -8 192q92 74 148 146z" />
    <glyph glyph-name="nine" unicode="9"
d="M696 741l-2 349q-158 -12 -288 4q16 -215 0 -355q170 8 290 2zM137 721l4 528q84 92 172 176q287 11 387 21q111 -84 205 -170q6 -123 0 -381t-2 -358q-66 -75 -165 -221t-168 -242t-95 -148q-47 27 -125 60q-4 2 -88 51q8 12 72 104q63 93 153 225t136 185
q-66 -14 -160 -14l-184 2q-20 35 -142 182z" />
    <glyph glyph-name="colon" unicode=":" horiz-adv-x="579"
d="M241 256h77l112 2l6 -217v-53q-48 -10 -152 -10t-132 4q0 27 4 89t6 113t4 76q29 -4 75 -4zM233 1174h77l112 2l6 -218v-53q-48 -10 -152 -10t-133 4q1 55 5 103t6 100t4 76q29 -4 75 -4z" />
    <glyph glyph-name="semicolon" unicode=";" horiz-adv-x="579"
d="M152 -8q0 204 14 276q78 -4 152 -4t110 2q8 -166 8 -282q-111 -184 -129 -209l-69 32l8 23q10 23 28 68t37 88q-107 0 -159 6zM276 891q-104 0 -133 4q1 55 5 103t6 100t4 76q36 -5 152 -5l112 2l6 -217v-53q-48 -10 -152 -10z" />
    <glyph glyph-name="less" unicode="&#x3c;"
d="M733 1329l64 -47q66 -49 94 -74q-315 -348 -492 -501q83 -76 227 -230t226 -227q-119 -98 -178 -156q-76 104 -275 312t-268 292q129 118 273 278q144 159 200 217t82 87q27 29 47 49z" />
    <glyph glyph-name="equal" unicode="="
d="M551 653l297 -4q-4 -110 -4 -192q-61 -4 -221 -4l-437 -13l-4 207h105zM432 748l-256 -5q0 10 6 201q20 2 90 2l291 -8h275q-3 -21 -15 -201z" />
    <glyph glyph-name="greater" unicode="&#x3e;"
d="M854 709q-37 -39 -235 -242t-345 -375q-41 53 -157 158q319 289 463 452q-111 111 -193 187t-299 287q27 16 78 70t86 83q96 -94 301 -310t301 -310z" />
    <glyph glyph-name="question" unicode="?" horiz-adv-x="1101"
d="M442 242h77l112 2l6 -217v-54q-47 -10 -151 -10t-134 4q0 31 4 91t6 104t5 84q29 -4 75 -4zM143 1024q0 254 7 422q50 63 139 162q29 2 90 8t110 6l297 -6q141 -147 164 -174q0 -162 -12 -378t-4 -452q-12 0 -60 -8t-138 -8t-115 2q2 -111 6 -270q-29 4 -99 4t-159 -8
q6 154 0 303t-2 180q182 18 329 0l-10 289q0 47 5 121t7 124q-170 -29 -309 -12q10 -193 4 -307q-12 2 -250 2z" />
    <glyph glyph-name="at" unicode="@" horiz-adv-x="1509"
d="M580 973q33 -291 24 -445q37 10 156 14t141 7q-18 78 -27 219q-8 141 -6 221q-114 -20 -288 -16zM1233 55q-250 0 -1049 -53q-64 380 -62 1023q1 300 1 318q487 95 899 97q256 0 315 -10q1 -90 17 -308t16 -305q0 -86 8 -230t6 -214q-59 -3 -207 -15t-165 -12l-49 76
q-319 -39 -490 -37q0 121 -15 364t-20 355q58 8 190 8t195 8q18 -27 56 -49l-9 98h179q-4 -121 13 -348t19 -309q53 23 119 18q-41 631 -45 738q-16 -2 -63 -6q-572 -49 -760 -43q41 -438 28 -988q154 23 977 50q-1 -7 7 -95t4 -131h-115z" />
    <glyph glyph-name="A" unicode="A" horiz-adv-x="1075"
d="M551 1241q-59 -389 -98 -575q59 16 200 8q-2 14 -28 122t-64 445h-10zM566 1442q66 0 171 -6q23 -123 68 -326t65 -330l144 -780q-82 -14 -277 -14l-61 481q-158 -18 -252 -2q-18 -141 -44 -277t-34 -198q-78 -10 -285 -10q23 148 76 373q186 795 225 1077l25 2
q113 10 179 10z" />
    <glyph glyph-name="B" unicode="B" horiz-adv-x="1038"
d="M486 266q96 0 147 -8q6 66 1 169t7 175q-168 37 -287 98q22 -294 -4 -450q40 16 136 16zM342 1116q0 -102 -4 -141q104 41 188 57q-20 162 -6 232q-61 -4 -184 4q6 -50 6 -152zM903 121q-101 -101 -139 -156q-97 4 -338 9q-242 5 -303 -1q-11 217 -11 801t-10 682
q20 -4 244 -10t375 -6q29 -51 113 -152q-14 -145 -11 -307q-13 0 -124 -40t-150 -56q45 -23 186 -62t191 -59q0 -195 -12 -366t-11 -277z" />
    <glyph glyph-name="C" unicode="C" horiz-adv-x="897"
d="M616 903h-71q-2 66 8 254q-107 4 -203 0q12 -150 12 -563l9 -299q0 -84 -2 -105q12 0 188 4t238 1l-7 -201q-50 2 -210 2t-345 -16q-47 63 -79 117q-32 53 -52 83q10 312 10 400t7 387q6 299 -2 348q27 37 72 82q46 45 59 59q152 -4 274 -4t254 14l12 -448v-117
q-27 2 -172 2z" />
    <glyph glyph-name="D" unicode="D" horiz-adv-x="1130"
d="M717 1292q-27 -2 -324 -8q24 -287 21 -556q-4 -270 0 -482q123 12 340 12q-16 76 -16 192t-13 392q-12 276 -8 450zM143 -23l2 144q0 39 -6 147t-12 540q-6 433 -25 660l514 13q111 0 168 -4q27 -25 104 -87t124 -120q-6 -190 5 -562t11 -528q-57 -53 -168 -180
q-112 -6 -352 -9t-365 -14z" />
    <glyph glyph-name="E" unicode="E" horiz-adv-x="876"
d="M502 303q24 0 136 2t124 0q6 -55 8 -176t4 -156l-643 13q0 1275 -29 1468q596 16 666 21v-224q-106 -12 -369 -4q4 -172 -4 -274q66 0 182 6t173 4q4 -47 3 -125t-1 -96q-184 4 -367 0l-18 -459h135z" />
    <glyph glyph-name="F" unicode="F" horiz-adv-x="876"
d="M397 877l258 16q0 -16 -3 -113t7 -147l-290 -4q2 -59 8 -283t14 -352q-199 0 -278 -6q2 72 2 473l2 439q0 269 -15 509q137 18 754 25q0 -49 -4 -217q-41 -1 -221 -5t-242 -2q12 -106 8 -333z" />
    <glyph glyph-name="G" unicode="G" horiz-adv-x="1040"
d="M406 488q0 -248 -9 -293q147 23 318 24q-6 93 -6 151t4 128q-106 -10 -187 -6q-2 14 -6 110t-8 131q49 -2 412 8q0 -88 10 -682q-16 -20 -46 -42t-44 -33q-309 27 -551 -2q-33 34 -85 104t-83 98q-2 72 -4 393t-19 527q31 63 112 168t118 168q80 10 224 15t212 11
q104 -96 168 -143q2 -172 -8 -444q-160 6 -238 0q-2 143 15 309q-301 -12 -324 -12q25 -440 25 -688z" />
    <glyph glyph-name="H" unicode="H" horiz-adv-x="1157"
d="M426 936q264 14 373 12q-6 80 -11 500q39 4 126 6t141 8q-13 -114 -15 -622t7 -844q-170 0 -244 -6q4 547 10 649q-240 -18 -385 -14q8 -152 7 -338t3 -316q-16 0 -147 -5t-144 3q-13 168 -18 568t-16 622t-11 285l324 6v-514z" />
    <glyph glyph-name="I" unicode="I" horiz-adv-x="522"
d="M119 634l-10 814l106 4q90 0 164 8q17 -1124 41 -1474h-158q-53 0 -127 -4q-16 378 -16 652z" />
    <glyph glyph-name="J" unicode="J" horiz-adv-x="794"
d="M680 734q0 -508 2 -628q-80 -96 -92 -106q-78 -2 -334 -23q-12 7 -83 49t-112 60q-12 72 -22 287l242 10l10 -190q100 20 147 20q-23 811 -28 1235l282 -4q-12 -202 -12 -710z" />
    <glyph glyph-name="K" unicode="K" horiz-adv-x="1032"
d="M102 -12q0 63 8 252t7 655q0 466 -6 541q90 4 147 4l115 2q-5 -48 -19 -574q125 0 156 -2q2 35 10 284t10 286q29 2 177 4t272 12l-8 -268q-25 0 -193 10q-8 -72 -14 -307q-47 -66 -119 -119v-10q25 -16 120 -60t107 -53q17 -108 21 -192t8 -120t14 -157t17 -174
q-25 -4 -295 -10q0 172 -29 624q-129 -12 -250 2q21 -284 21 -636q-176 4 -277 6z" />
    <glyph glyph-name="L" unicode="L" horiz-adv-x="976"
d="M664 310q0 82 2 116q152 0 241 8l6 -461q-641 29 -802 9q-10 109 -7 682q4 573 -2 802l304 -2q0 -903 -21 -1263q184 10 281 -6q-2 33 -2 115z" />
    <glyph glyph-name="M" unicode="M" horiz-adv-x="1327"
d="M922 1370q0 68 -2 90q201 4 276 17q8 -967 29 -1493q-98 0 -295 -4q10 242 10 360l2 461h-10q-109 -264 -254 -475h-10q-47 82 -128 244t-114 266h-10q8 -213 8 -525l6 -331q-60 2 -124 2t-169 -5q6 166 6 461l-4 733l-6 265q252 35 281 45q32 -78 154 -322t163 -346h10
q16 43 85 206t96 255v96z" />
    <glyph glyph-name="N" unicode="N" horiz-adv-x="1171"
d="M397 196q0 -95 -4 -223q-100 23 -274 23q14 226 14 456t-9 408t-9 231t-13 334q184 10 281 11q2 -25 -2 -254q168 -236 249 -362t158 -232q-4 98 -4 221t3 210t5 147t7 144q6 84 6 115q178 -16 264 -12l-4 -270l2 -322l-4 -428q0 -205 -6 -418q-168 8 -215 9l-60 -2
q4 49 9 227q-80 86 -202 256t-202 307q10 -481 10 -576z" />
    <glyph glyph-name="O" unicode="O" horiz-adv-x="1075"
d="M332 680q0 -74 8 -258t8 -260q121 35 287 24v715q0 119 8 215q-172 -4 -307 21q4 -49 0 -216t-4 -241zM965 668l-2 -310q0 -109 2 -161q-35 -80 -99 -211q-121 -10 -250 -11h-368q-33 46 -70 82t-51 52q-10 138 -10 548l-15 551q16 37 71 112q54 75 71 105q66 -4 174 -4
l434 11q12 -29 48 -82t48 -76q16 -356 17 -606z" />
    <glyph glyph-name="P" unicode="P" horiz-adv-x="940"
d="M358 1096q0 -87 7 -312t8 -231q57 8 103 8t83 -4q-18 454 2 678q-152 -10 -207 -6q4 -46 4 -133zM127 -37l-2 768q0 280 -23 705q344 -13 480 -13t192 7q66 -98 74 -109q-12 -166 -12 -856q-18 -25 -52 -77t-57 -79q-127 -18 -213 -18t-145 8q8 -274 14 -338
q-53 -2 -109 -2t-102 2z" />
    <glyph glyph-name="Q" unicode="Q" horiz-adv-x="1187"
d="M565 227l103 133q88 -68 137 -129q-23 152 -23 650l-8 307q-250 -18 -381 -12q11 -137 13 -505t-7 -530q49 6 121 6l160 -8q-12 8 -54 43t-61 45zM1034 119l154 -129l-137 -150q-43 29 -99 80t-75 68q-76 -6 -292 -5t-280 -8q-29 35 -82 83t-84 85q0 178 -16 542t-21 562
q37 23 128 103t147 110q57 -4 224 2t222 6q76 -55 219 -147q12 -221 12 -405t-20 -797z" />
    <glyph glyph-name="R" unicode="R" horiz-adv-x="1009"
d="M566 864q67 0 85 -2q-20 184 -20 348v82q-111 -16 -238 -12q17 -140 17 -270t-2 -156q91 10 158 10zM705 592l264 -533q-35 -14 -107 -48t-129 -52q-68 123 -155 329q-88 206 -136 302q-20 2 -61 0t-49 -2q-2 -131 22 -604q-49 2 -250 -9q10 55 4 676t-2 785
q82 -2 333 11t333 7q20 -27 68 -71t63 -60q0 -123 12 -623l-88 -108h-122z" />
    <glyph glyph-name="S" unicode="S" horiz-adv-x="1011"
d="M563 4q-188 0 -346 -27q-25 29 -67 59t-48 36q20 313 17 426q41 -4 115 -3t122 -6q-12 -166 -16 -227q51 6 139 6t135 -2q-18 276 -8 406q-82 -10 -183 -8t-171 0q-16 28 -70 100t-76 115q0 35 5 167q4 132 -2 185q4 8 129 203l450 22q27 -35 80 -70t86 -67
q-12 -106 0 -318l-256 -4q-6 49 10 238q-176 -14 -260 0q20 -225 4 -365q4 6 182 4t226 -2q39 -49 123 -124q0 -262 26 -629q-53 -49 -102 -115h-244z" />
    <glyph glyph-name="T" unicode="T" horiz-adv-x="833"
d="M35 1280q0 66 -4 154q605 0 770 6q2 -98 -6 -326q-164 0 -228 4q-2 -264 -2 -387l-8 -580l2 -161l-280 -6l8 510q0 49 2 278t0 346q-178 10 -258 2q4 94 4 160z" />
    <glyph glyph-name="U" unicode="U" horiz-adv-x="1105"
d="M651 1442h155q122 0 177 4l21 -1296q-18 -14 -107 -72t-137 -113q-104 15 -264 21t-205 4q-29 27 -166 137q2 164 -23 1313q8 0 114 3t144 -1q6 -197 -2 -592t-8 -528q168 14 334 -7q0 165 -16 521t-17 606z" />
    <glyph glyph-name="V" unicode="V" horiz-adv-x="1030"
d="M31 1421l270 29q74 -369 178 -1169h10q33 231 110 623t99 554q42 -4 138 -10t163 -14q-94 -334 -208 -832q-113 -497 -146 -637q-153 12 -291 12q-31 156 -144 605q-114 449 -179 839z" />
    <glyph glyph-name="W" unicode="W" horiz-adv-x="1415"
d="M1130 -18q-2 0 -134 5t-146 -5q-92 342 -139 931h-11q-13 -252 -59 -560q-47 -308 -53 -369q-102 4 -279 -7q-55 221 -157 804q-103 583 -121 671l280 16q113 -631 156 -1124h12q51 623 129 1077q29 1 121 9t121 10q96 -612 149 -1106h11q8 102 54 473t58 637l262 -14
q-26 -272 -140 -860z" />
    <glyph glyph-name="X" unicode="X" horiz-adv-x="1044"
d="M399 1446l-6 -422q102 -68 191 -154l92 99l-27 456q190 16 264 13q6 -104 -1 -268t-15 -214q-117 -117 -199 -153q145 -59 222 -105q8 -63 10 -348t12 -368q-242 8 -305 8l-19 585q-61 55 -79 78q-32 -46 -101 -112l-22 -23q25 -305 20 -538q-31 2 -321 -5q25 315 24 584
q180 139 277 184q-90 44 -242 134l-49 30q-8 94 -13 294t-10 243q284 0 297 2z" />
    <glyph glyph-name="Y" unicode="Y" horiz-adv-x="1060"
d="M31 1458q63 11 311 31q61 -170 205 -633h10q31 145 98 353q68 208 84 274q119 -8 291 -8q-76 -205 -181 -468t-155 -391q-2 -158 1 -354t-1 -293q-51 -6 -143 -7t-141 -3q27 592 30 645q-35 72 -189 403q-155 331 -220 451z" />
    <glyph glyph-name="Z" unicode="Z" horiz-adv-x="923"
d="M842 231q-6 -108 -6 -274q-123 6 -370 7t-384 9q2 221 4 236q90 190 245 482q154 292 224 437l-461 -6v305q247 3 439 -4q192 -6 290 -8q-4 -98 -2 -143q-143 -426 -483 -1049z" />
    <glyph glyph-name="bracketleft" unicode="[" horiz-adv-x="708"
d="M338 1501q142 0 199 6l8 -305q-164 11 -215 21q18 -225 18 -629l10 -498q0 -59 -2 -69q109 8 179 10l-7 -201q-252 0 -422 -14q-8 100 2 370t11 402l20 909q57 -2 199 -2z" />
    <glyph glyph-name="backslash" unicode="\" horiz-adv-x="952"
d="M20 1477l164 65q596 -1210 789 -1565q-8 -4 -174 -69q-135 293 -388 803q-254 510 -391 766z" />
    <glyph glyph-name="bracketright" unicode="]" horiz-adv-x="708"
d="M352 1255q-47 0 -178 -4l6 242q252 0 422 14q8 -99 3 -211t-9 -310t-10 -333t-16 -449t-11 -378q-59 8 -166 8t-221 -12l-8 305q117 -4 209 -4q0 127 -13 612l-10 379l2 89v52z" />
    <glyph glyph-name="asciicircum" unicode="^"
d="M1022 836l-254 -68l-262 463l-256 -459q-229 16 -246 16l395 648l201 18z" />
    <glyph glyph-name="underscore" unicode="_" horiz-adv-x="886"
d="M887 -168q0 -143 -2 -176h-895l8 176q20 2 88 2l295 -2h506z" />
    <glyph glyph-name="grave" unicode="`" horiz-adv-x="548"
d="M463 1120l-89 -2q-24 0 -40 2l-334 385q180 10 344 -6l205 -375q-20 -4 -86 -4z" />
    <glyph glyph-name="a" unicode="a" horiz-adv-x="1075"
d="M551 1241q-59 -389 -98 -575q59 16 200 8q-2 14 -28 122t-64 445h-10zM566 1442q66 0 171 -6q23 -123 68 -326t65 -330l144 -780q-82 -14 -277 -14l-61 481q-158 -18 -252 -2q-18 -141 -44 -277t-34 -198q-78 -10 -285 -10q23 148 76 373q186 795 225 1077l25 2
q113 10 179 10z" />
    <glyph glyph-name="b" unicode="b" horiz-adv-x="1038"
d="M486 266q96 0 147 -8q6 66 1 169t7 175q-168 37 -287 98q22 -294 -4 -450q40 16 136 16zM342 1116q0 -102 -4 -141q104 41 188 57q-20 162 -6 232q-61 -4 -184 4q6 -50 6 -152zM903 121q-101 -101 -139 -156q-97 4 -338 9q-242 5 -303 -1q-11 217 -11 801t-10 682
q20 -4 244 -10t375 -6q29 -51 113 -152q-14 -145 -11 -307q-13 0 -124 -40t-150 -56q45 -23 186 -62t191 -59q0 -195 -12 -366t-11 -277z" />
    <glyph glyph-name="c" unicode="c" horiz-adv-x="903"
d="M585 -4q-161 0 -345 -16q-47 63 -79 117q-32 53 -52 83q10 312 10 400t6 387t-2 348q27 37 73 82t58 59q152 -4 274 -4t254 14l13 -448v-117q-27 2 -172 2h-72q-2 66 8 254q-107 4 -203 0q12 -150 13 -563l8 -299q0 -84 -2 -105q12 0 188 4t238 1l-6 -201q-49 2 -210 2z
" />
    <glyph glyph-name="d" unicode="d" horiz-adv-x="1130"
d="M717 1292q-27 -2 -324 -8q24 -287 21 -556q-4 -270 0 -482q123 12 340 12q-16 76 -16 192t-13 392q-12 276 -8 450zM143 -23l2 144q0 39 -6 147t-12 540q-6 433 -25 660l514 13q111 0 168 -4q27 -25 104 -87t124 -120q-6 -190 5 -562t11 -528q-57 -53 -168 -180
q-112 -6 -352 -9t-365 -14z" />
    <glyph glyph-name="e" unicode="e" horiz-adv-x="876"
d="M502 303q24 0 136 2t124 0q6 -55 8 -176t4 -156l-643 13q0 1275 -29 1468q596 16 666 21v-224q-106 -12 -369 -4q4 -172 -4 -274q66 0 182 6t173 4q4 -47 3 -125t-1 -96q-184 4 -367 0l-18 -459h135z" />
    <glyph glyph-name="f" unicode="f" horiz-adv-x="876"
d="M397 877l258 16q0 -16 -3 -113t7 -147l-290 -4q2 -59 8 -283t14 -352q-199 0 -278 -6q2 72 2 473l2 439q0 269 -15 509q137 18 754 25q0 -49 -4 -217q-41 -1 -221 -5t-242 -2q12 -106 8 -333z" />
    <glyph glyph-name="g" unicode="g" horiz-adv-x="1040"
d="M406 488q0 -248 -9 -293q147 23 318 24q-6 93 -6 151t4 128q-106 -10 -187 -6q-2 14 -6 110t-8 131q49 -2 412 8q0 -88 10 -682q-16 -20 -46 -42t-44 -33q-309 27 -551 -2q-33 34 -85 104t-83 98q-2 72 -4 393t-19 527q31 63 112 168t118 168q80 10 224 15t212 11
q104 -96 168 -143q2 -172 -8 -444q-160 6 -238 0q-2 143 15 309q-301 -12 -324 -12q25 -440 25 -688z" />
    <glyph glyph-name="h" unicode="h" horiz-adv-x="1157"
d="M426 936q264 14 373 12q-6 80 -11 500q39 4 126 6t141 8q-13 -114 -15 -622t7 -844q-170 0 -244 -6q4 547 10 649q-240 -18 -385 -14q8 -152 7 -338t3 -316q-16 0 -147 -5t-144 3q-13 168 -18 568t-16 622t-11 285l324 6v-514z" />
    <glyph glyph-name="i" unicode="i" horiz-adv-x="522"
d="M119 634l-10 814l106 4q90 0 164 8q17 -1124 41 -1474h-158q-53 0 -127 -4q-16 378 -16 652z" />
    <glyph glyph-name="j" unicode="j" horiz-adv-x="794"
d="M680 734q0 -508 2 -628q-80 -96 -92 -106q-78 -2 -334 -23q-12 7 -83 49t-112 60q-12 72 -22 287l242 10l10 -190q100 20 147 20q-23 811 -28 1235l282 -4q-12 -202 -12 -710z" />
    <glyph glyph-name="k" unicode="k" horiz-adv-x="1032"
d="M102 -12q0 63 8 252t7 655q0 466 -6 541q90 4 147 4l115 2q-5 -48 -19 -574q125 0 156 -2q2 35 10 284t10 286q29 2 177 4t272 12l-8 -268q-25 0 -193 10q-8 -72 -14 -307q-47 -66 -119 -119v-10q25 -16 120 -60t107 -53q17 -108 21 -192t8 -120t14 -157t17 -174
q-25 -4 -295 -10q0 172 -29 624q-129 -12 -250 2q21 -284 21 -636q-176 4 -277 6z" />
    <glyph glyph-name="l" unicode="l" horiz-adv-x="976"
d="M664 310q0 82 2 116q152 0 241 8l6 -461q-641 29 -802 9q-10 109 -7 682q4 573 -2 802l304 -2q0 -903 -21 -1263q184 10 281 -6q-2 33 -2 115z" />
    <glyph glyph-name="m" unicode="m" horiz-adv-x="1327"
d="M922 1370q0 68 -2 90q201 4 276 17q8 -967 29 -1493q-98 0 -295 -4q10 242 10 360l2 461h-10q-109 -264 -254 -475h-10q-47 82 -128 244t-114 266h-10q8 -213 8 -525l6 -331q-60 2 -124 2t-169 -5q6 166 6 461l-4 733l-6 265q252 35 281 45q32 -78 154 -322t163 -346h10
q16 43 85 206t96 255v96z" />
    <glyph glyph-name="n" unicode="n" horiz-adv-x="1171"
d="M397 196q0 -95 -4 -223q-100 23 -274 23q14 226 14 456t-9 408t-9 231t-13 334q184 10 281 11q2 -25 -2 -254q168 -236 249 -362t158 -232q-4 98 -4 221t3 210t5 147t7 144q6 84 6 115q178 -16 264 -12l-4 -270l2 -322l-4 -428q0 -205 -6 -418q-168 8 -215 9l-60 -2
q4 49 9 227q-80 86 -202 256t-202 307q10 -481 10 -576z" />
    <glyph glyph-name="o" unicode="o" horiz-adv-x="1075"
d="M332 680q0 -74 8 -258t8 -260q121 35 287 24v715q0 119 8 215q-172 -4 -307 21q4 -49 0 -216t-4 -241zM965 668l-2 -310q0 -109 2 -161q-35 -80 -99 -211q-121 -10 -250 -11h-368q-33 46 -70 82t-51 52q-10 138 -10 548l-15 551q16 37 71 112q54 75 71 105q66 -4 174 -4
l434 11q12 -29 48 -82t48 -76q16 -356 17 -606z" />
    <glyph glyph-name="p" unicode="p" horiz-adv-x="940"
d="M358 1096q0 -87 7 -312t8 -231q57 8 103 8t83 -4q-18 454 2 678q-152 -10 -207 -6q4 -46 4 -133zM127 -37l-2 768q0 280 -23 705q344 -13 480 -13t192 7q66 -98 74 -109q-12 -166 -12 -856q-18 -25 -52 -77t-57 -79q-127 -18 -213 -18t-145 8q8 -274 14 -338
q-53 -2 -109 -2t-102 2z" />
    <glyph glyph-name="q" unicode="q" horiz-adv-x="1187"
d="M565 227l103 133q88 -68 137 -129q-23 152 -23 650l-8 307q-250 -18 -381 -12q11 -137 13 -505t-7 -530q49 6 121 6l160 -8q-12 8 -54 43t-61 45zM1034 119l154 -129l-137 -150q-43 29 -99 80t-75 68q-76 -6 -292 -5t-280 -8q-29 35 -82 83t-84 85q0 178 -16 542t-21 562
q37 23 128 103t147 110q57 -4 224 2t222 6q76 -55 219 -147q12 -221 12 -405t-20 -797z" />
    <glyph glyph-name="r" unicode="r" horiz-adv-x="1009"
d="M566 864q67 0 85 -2q-20 184 -20 348v82q-111 -16 -238 -12q17 -140 17 -270t-2 -156q91 10 158 10zM705 592l264 -533q-35 -14 -107 -48t-129 -52q-68 123 -155 329q-88 206 -136 302q-20 2 -61 0t-49 -2q-2 -131 22 -604q-49 2 -250 -9q10 55 4 676t-2 785
q82 -2 333 11t333 7q20 -27 68 -71t63 -60q0 -123 12 -623l-88 -108h-122z" />
    <glyph glyph-name="s" unicode="s" horiz-adv-x="1011"
d="M563 4q-188 0 -346 -27q-25 29 -67 59t-48 36q20 313 17 426q41 -4 115 -3t122 -6q-12 -166 -16 -227q51 6 139 6t135 -2q-18 276 -8 406q-82 -10 -183 -8t-171 0q-16 28 -70 100t-76 115q0 35 5 167q4 132 -2 185q4 8 129 203l450 22q27 -35 80 -70t86 -67
q-12 -106 0 -318l-256 -4q-6 49 10 238q-176 -14 -260 0q20 -225 4 -365q4 6 182 4t226 -2q39 -49 123 -124q0 -262 26 -629q-53 -49 -102 -115h-244z" />
    <glyph glyph-name="t" unicode="t" horiz-adv-x="833"
d="M35 1280q0 66 -4 154q605 0 770 6q2 -98 -6 -326q-164 0 -228 4q-2 -264 -2 -387l-8 -580l2 -161l-280 -6l8 510q0 49 2 278t0 346q-178 10 -258 2q4 94 4 160z" />
    <glyph glyph-name="u" unicode="u" horiz-adv-x="1105"
d="M651 1442h155q122 0 177 4l21 -1296q-18 -14 -107 -72t-137 -113q-104 15 -264 21t-205 4q-29 27 -166 137q2 164 -23 1313q8 0 114 3t144 -1q6 -197 -2 -592t-8 -528q168 14 334 -7q0 165 -16 521t-17 606z" />
    <glyph glyph-name="v" unicode="v" horiz-adv-x="1030"
d="M31 1421l270 29q74 -369 178 -1169h10q33 231 110 623t99 554q42 -4 138 -10t163 -14q-94 -334 -208 -832q-113 -497 -146 -637q-153 12 -291 12q-31 156 -144 605q-114 449 -179 839z" />
    <glyph glyph-name="w" unicode="w" horiz-adv-x="1415"
d="M1130 -18q-2 0 -134 5t-146 -5q-92 342 -139 931h-11q-13 -252 -59 -560q-47 -308 -53 -369q-102 4 -279 -7q-55 221 -157 804q-103 583 -121 671l280 16q113 -631 156 -1124h12q51 623 129 1077q29 1 121 9t121 10q96 -612 149 -1106h11q8 102 54 473t58 637l262 -14
q-26 -272 -140 -860z" />
    <glyph glyph-name="x" unicode="x" horiz-adv-x="1044"
d="M399 1446l-6 -422q102 -68 191 -154l92 99l-27 456q190 16 264 13q6 -104 -1 -268t-15 -214q-117 -117 -199 -153q145 -59 222 -105q8 -63 10 -348t12 -368q-242 8 -305 8l-19 585q-61 55 -79 78q-32 -46 -101 -112l-22 -23q25 -305 20 -538q-31 2 -321 -5q25 315 24 584
q180 139 277 184q-90 44 -242 134l-49 30q-8 94 -13 294t-10 243q284 0 297 2z" />
    <glyph glyph-name="y" unicode="y" horiz-adv-x="1060"
d="M31 1458q63 11 311 31q61 -170 205 -633h10q31 145 98 353q68 208 84 274q119 -8 291 -8q-76 -205 -181 -468t-155 -391q-2 -158 1 -354t-1 -293q-51 -6 -143 -7t-141 -3q27 592 30 645q-35 72 -189 403q-155 331 -220 451z" />
    <glyph glyph-name="z" unicode="z" horiz-adv-x="923"
d="M842 231q-6 -108 -6 -274q-123 6 -370 7t-384 9q2 221 4 236q90 190 245 482q154 292 224 437l-461 -6v305q247 3 439 -4q192 -6 290 -8q-4 -98 -2 -143q-143 -426 -483 -1049z" />
    <glyph glyph-name="braceleft" unicode="{" horiz-adv-x="784"
d="M496 1563q142 0 198 6l8 -297l-215 12q12 -135 17 -473q-18 -2 -88 -8q4 -49 -10 -164q57 -2 100 -10l10 -533q0 -59 -2 -69q109 8 178 10l-6 -201q-252 0 -422 -14q-8 100 0 266q0 84 12 498h-151q-35 0 -64 4l9 141q0 90 6 137q25 -6 99 -8t104 0q10 326 28 705
q47 -2 189 -2z" />
    <glyph glyph-name="bar" unicode="|" horiz-adv-x="538"
d="M393 1651q0 -143 -8 -339t-8 -397t-4 -693t-6 -509q-20 -4 -86 -4l-94 -2q-26 0 -42 2q-1 31 3 109t4 1331l-4 356q1 92 8 144q23 2 237 2z" />
    <glyph glyph-name="braceright" unicode="}" horiz-adv-x="784"
d="M289 -172q-141 0 -199 -6l-8 278q96 0 219 -10q-16 123 -20 551q8 2 98 8q-8 82 6 160q-29 2 -106 14l-5 287q0 57 15 252q-143 -10 -197 -12l6 204q252 0 422 15q4 -61 -2 -272t-10 -431h151q35 0 64 -4q0 -138 -14 -274q-101 10 -203 4q-2 -88 -29 -766q-47 2 -188 2z
" />
    <glyph glyph-name="asciitilde" unicode="~"
d="M782 981l228 -162q-8 -12 -45 -56t-123 -183q-52 -2 -154 1t-129 3q-160 143 -199 184q-16 -30 -64 -104t-54 -82l-224 149q139 216 150 234q143 -10 307 -7q94 -70 189 -155l78 123t40 55z" />
    <glyph glyph-name="sterling" unicode="&#xa3;" horiz-adv-x="1097"
d="M754 1061q0 64 6 235q-98 -4 -172 -4t-94 4q10 -123 10 -462q33 2 108 2l258 6l-12 -213l-356 6l-4 -203q-2 -139 -43 -231l317 -2l223 -4q-6 -113 -6 -222q-268 12 -682 13l-194 -6q-8 119 -11 225q68 2 123 2q39 53 39 225l-10 836q98 86 215 207l510 -2l-2 -158
l4 -254h-227z" />
    <glyph glyph-name="currency" unicode="&#xa4;" horiz-adv-x="1054"
d="M611 807q46 0 83 -4q-8 100 -8 215l10 217q-102 -8 -157 -8l-50 2q14 -141 19 -430q57 8 103 8zM643 580q-92 0 -139 2q0 -68 2 -109h153q191 0 320 12q4 -160 4 -223h-475q4 -209 10 -270q-27 -2 -88 -2l-168 4q4 98 4 149l-2 119h-28q-31 0 -134 -4l4 221
q145 -4 156 -4v109l-160 -2q0 125 4 221q93 -6 156 -6q-13 432 -24 639q345 -13 480 -13t191 7q66 -98 74 -109q-12 -365 -12 -610l4 -115q-240 -16 -332 -16z" />
    <glyph glyph-name="section" unicode="&#xa7;" horiz-adv-x="1134"
d="M659 551q-16 113 -4 328q-127 -12 -227 -2q14 -209 0 -328q112 14 231 2zM934 877v-29q0 -30 10 -150q-158 -135 -196 -163q135 -90 223 -179q-4 -258 -8 -450q-84 -78 -125 -133q-311 18 -476 8q-51 51 -110 136q-60 85 -72 101q6 84 2 189q233 0 281 -6l-4 -207
q135 -4 211 4q-14 133 0 295q-373 10 -379 10q-53 49 -125 180q0 39 -2 113t0 104q66 100 180 203q-86 96 -192 156q-10 170 -5 268q17 23 63 89t73 100q70 2 215 11t235 11l154 -131q0 -152 4 -215q-125 0 -242 -6l6 182q-145 -8 -225 2q4 -160 0 -262q57 4 180 -3t195 -5
q39 -49 123 -125q6 -79 6 -98z" />
    <glyph glyph-name="dieresis" unicode="&#xa8;" horiz-adv-x="645"
d="M10 1587q0 139 -10 203q38 16 140 16t155 -12l-4 -119v-104q0 -12 4 -33l-170 -4q-63 0 -115 14v39zM631 1651q0 -97 2 -107q-16 -2 -49 -2t-99 -3t-106 -1q-2 14 -2 112t-12 134q100 18 241 18h39q-14 -54 -14 -151z" />
    <glyph glyph-name="copyright" unicode="&#xa9;" horiz-adv-x="1255"
d="M817 829q0 -266 2 -286q-79 -15 -119 -15h-109h-157q0 62 -9 222t-9 276l2 150h8l39 2q47 0 348 10q8 -94 8 -156l-2 -129l-137 -8q-2 14 -2 39l2 115q-83 -7 -135 -2l14 -236q0 -45 -4 -78q20 4 123 4q-4 74 -4 99q66 4 141 0v-7zM909 808q0 294 21 480q-56 -4 -629 -16
q39 -600 29 -854q295 31 594 -2q-15 98 -15 392zM1102 1501q-23 -346 -23 -581t15 -418t18 -258l-303 -4q-399 0 -651 -9q6 190 6 258l-17 775q0 152 -4 217q131 8 271 8l309 -2q59 0 379 14z" />
    <glyph glyph-name="guillemotleft" unicode="&#xab;" horiz-adv-x="1116"
d="M61 719l295 567q178 8 238 4q-82 -199 -260 -569v-14q158 -303 344 -551q-80 0 -268 -4q-18 27 -134 195q-115 168 -215 372zM993 184q-38 -3 -235 -22q-45 82 -175 276t-177 283q37 83 141 287t135 282q201 10 227 10l-243 -542v-15q18 -31 69 -113l85 -138
q74 -120 173 -308z" />
    <glyph glyph-name="logicalnot" unicode="&#xac;"
d="M178 809l457 8l209 2v-94l-4 -260q0 -43 6 -86q-29 -2 -111 -1t-112 -7q-10 47 -11 207q-18 -2 -417 -13q-4 162 -17 244z" />
    <glyph glyph-name="registered" unicode="&#xae;" horiz-adv-x="1318"
d="M758 1110q-106 -4 -201 0q6 -123 -4 -197q123 8 203 5q-4 126 2 192zM578 487l-66 2q-43 0 -80 -4q-10 586 -2 709q66 10 224 9t243 1q2 -76 -4 -223t-2 -195q-121 0 -146 2q25 -53 64 -130t61 -121q-56 -19 -131 -54l-129 301q-35 0 -49 2q8 -82 17 -299zM678 1309
q-252 0 -367 -13q17 -184 17 -470t10 -425q391 6 657 7q-8 25 -3 380t3 523q-65 -2 -317 -2zM143 1473q115 14 268 14l431 4q238 0 325 4q9 -229 7 -715t0 -557q-438 6 -1008 2q-8 166 -8 920q-1 117 -15 328z" />
    <glyph glyph-name="degree" unicode="&#xb0;" horiz-adv-x="739"
d="M424 1354q-49 -10 -137 -6q0 -109 -19 -191q135 8 158 8q-6 113 -2 189zM106 1528l318 4q41 0 213 -6q-14 -184 -43 -500q-143 -6 -485 -27q-6 82 -7 156z" />
    <glyph glyph-name="plusminus" unicode="&#xb1;"
d="M449 305q134 0 389 -14l-13 -191l-647 6q4 41 0 187q137 12 271 12zM381 1018q89 0 227 12q14 -70 10 -223q88 14 209 14l4 -96q0 -74 5 -129q-57 -4 -199 -4q8 -145 22 -213q-29 -2 -121 -1t-122 -7q-10 47 -10 207q-80 -8 -224 -13q-4 145 -16 230q49 10 126 13t97 5z
" />
    <glyph glyph-name="acute" unicode="&#xb4;" horiz-adv-x="548"
d="M86 1530q-66 0 -86 4l205 375q164 16 344 6l-334 -385h-129z" />
    <glyph glyph-name="mu" unicode="&#xb5;" horiz-adv-x="1224"
d="M102 1034q172 -13 312 -2q0 -211 20 -418q29 -106 56 -145q26 -39 46 -62t91 -94q100 63 152 139t102 242v157q0 128 -2 150l225 17q6 -700 18 -1022q-28 -8 -114 -4t-119 4q0 111 14 297q-47 -101 -119 -191t-133 -122q-74 22 -136 94t-99 166q8 -213 8 -387l6 -365
q-61 2 -109 2l-215 -4q6 166 7 494l-4 733z" />
    <glyph glyph-name="mu" unicode="&#x3bc;" horiz-adv-x="1224"
d="M102 1034q172 -13 312 -2q0 -211 20 -418q29 -106 56 -145q26 -39 46 -62t91 -94q100 63 152 139t102 242v157q0 128 -2 150l225 17q6 -700 18 -1022q-28 -8 -114 -4t-119 4q0 111 14 297q-47 -101 -119 -191t-133 -122q-74 22 -136 94t-99 166q8 -213 8 -387l6 -365
q-61 2 -109 2l-215 -4q6 166 7 494l-4 733z" />
    <glyph glyph-name="paragraph" unicode="&#xb6;" horiz-adv-x="1220"
d="M799 486q0 443 8 743q-55 -8 -109 -2q10 -172 11 -531l10 -708q-123 -6 -205 -8q4 111 -2 657q-38 2 -148 2t-204 -6l-6 395q0 309 -11 420q55 0 258 -3t662 21l2 -383l12 -1095q-147 -2 -270 -8q-8 63 -8 506z" />
    <glyph glyph-name="guillemotright" unicode="&#xbb;" horiz-adv-x="972"
d="M340 1276q168 -301 278 -539q-84 -211 -274 -547q-117 -4 -221 5l260 536v10q-170 350 -244 529q68 -4 201 6zM416 1278q66 4 233 4l262 -545q-46 -130 -152 -332q-105 -202 -118 -229q-25 4 -203 17q41 130 185 438l51 108v11z" />
    <glyph glyph-name="divide" unicode="&#xf7;"
d="M930 594l-852 6q4 41 0 186q110 9 448 2h418q-14 -186 -14 -194zM506 84q-104 0 -133 4q0 27 4 89t6 114t4 76q36 -5 153 -5l111 3l6 -218v-53q-47 -10 -151 -10zM454 1280h77l112 2l6 -217v-53q-47 -10 -151 -10t-133 4q0 27 4 89t6 113t4 76q29 -4 75 -4z" />
    <glyph glyph-name="breve" unicode="&#x2d8;" horiz-adv-x="735"
d="M733 1667q0 -90 -2 -137q-121 8 -355 5t-374 7h-2q10 240 6 305q57 0 130 1t91 1q-6 -33 -16 -145q76 4 90 5t94 -4t94 -5q4 49 7 102l239 2q-2 -47 -2 -137z" />
    <glyph glyph-name="afii10023" unicode="&#x401;" horiz-adv-x="835"
d="M106 1587q0 139 -10 203q38 16 140 16t155 -12l-4 -119v-104q0 -12 4 -33l-170 -4q-66 0 -115 14v39zM727 1651q0 -97 2 -107q-16 -2 -49 -2q-32 0 -98 -3t-107 -1q-2 14 -2 112t-12 134q100 18 241 18h39q-14 -54 -14 -151zM481 303q23 0 135 2t125 0q7 -55 9 -176
t4 -156l-643 13q0 1275 -29 1468q596 16 666 21v-224q-106 -12 -369 -4q4 -172 -4 -274q65 0 181 6t173 4q4 -47 3 -125t-1 -96q-182 4 -366 0l-19 -459h135z" />
    <glyph glyph-name="afii10051" unicode="&#x402;" horiz-adv-x="1118"
d="M553 627l6 -476v-161l-280 -6l8 510q0 48 2 288t0 357q-178 10 -258 2q4 95 4 161t-4 152q605 0 770 6q2 -98 -6 -325q-164 0 -228 4q-2 -139 -2 -267q170 8 244 11q25 -20 207 -160q-25 -242 -8 -975q-23 -20 -71 -65t-81 -74q-86 -4 -144 -4t-85 4l4 129q0 61 -4 102
h75l62 2q0 553 10 789q-106 -14 -221 -4z" />
    <glyph glyph-name="afii10052" unicode="&#x403;" horiz-adv-x="819"
d="M342 1141q10 -155 26 -563t23 -588q-43 -4 -147 -5t-150 -8q-6 72 -15 714t-5 739q328 16 682 6l16 -648l-227 -4q0 113 18 361q-125 -10 -221 -4zM364 1528l-90 2q-66 0 -86 4l205 375q164 16 344 6l-334 -385q-16 -2 -39 -2z" />
    <glyph glyph-name="afii10053" unicode="&#x404;" horiz-adv-x="1032"
d="M133 862q0 240 -8 389q27 23 119 97t159 135q270 -10 506 -15q6 -285 15 -419q-131 10 -287 6q-4 156 6 258q-14 0 -139 -6q-49 -63 -94 -107q12 -125 2 -270q68 2 196 -2t170 -4q-16 -160 -22 -365q-215 -6 -332 4q18 -178 10 -354q111 -6 223 -6q-8 106 -8 194l281 -6
q0 -90 -6 -391q-293 -23 -625 -23q-23 27 -197 234q31 411 31 651z" />
    <glyph glyph-name="afii10054" unicode="&#x405;" horiz-adv-x="1011"
d="M563 4q-188 0 -346 -27q-25 29 -67 59t-48 36q20 313 17 426q41 -4 115 -3t122 -6q-12 -166 -16 -227q51 6 139 6t135 -2q-18 276 -8 406q-82 -10 -183 -8t-171 0q-16 28 -70 100t-76 115q0 35 5 167q4 132 -2 185q4 8 129 203l450 22q27 -35 80 -70t86 -67
q-12 -106 0 -318l-256 -4q-6 49 10 238q-176 -14 -260 0q20 -225 4 -365q4 6 182 4t226 -2q39 -49 123 -124q0 -262 26 -629q-53 -49 -102 -115h-244z" />
    <glyph glyph-name="afii10055" unicode="&#x406;" horiz-adv-x="604"
d="M160 634l-10 814l106 4q90 0 164 8q17 -1124 41 -1474h-158q-53 0 -127 -4q-16 378 -16 652z" />
    <glyph glyph-name="afii10056" unicode="&#x407;" horiz-adv-x="645"
d="M334 -14q-53 0 -127 -4q-17 378 -17 652t-5 430t-5 384l107 4q90 0 164 8q18 -1186 41 -1474h-158zM10 1587q0 139 -10 203q38 16 140 16t155 -12l-4 -119v-104q0 -12 4 -33l-170 -4q-63 0 -115 14v39zM631 1651q0 -97 2 -107q-16 -2 -49 -2t-99 -3t-106 -1q-2 14 -2 112
t-12 134q100 18 241 18h39q-14 -54 -14 -151z" />
    <glyph glyph-name="afii10057" unicode="&#x408;" horiz-adv-x="794"
d="M680 734q0 -508 2 -628q-80 -96 -92 -106q-78 -2 -334 -23q-12 7 -83 49t-112 60q-12 72 -22 287l242 10l10 -190q100 20 147 20q-23 811 -28 1235l282 -4q-12 -202 -12 -710z" />
    <glyph glyph-name="afii10058" unicode="&#x409;" horiz-adv-x="1492"
d="M1076 254q44 0 67 -4q-6 55 -6 201l-9 337q-115 -16 -172 -10q0 -453 -12 -534q88 10 132 10zM647 1442q176 0 301 -2q0 -31 -16 -463q78 16 287 12q117 -129 151 -172q23 -535 19 -717q-94 -100 -113 -114q-70 0 -206 -8t-273 -7l-92 2l4 779q0 223 10 350
q-102 -4 -160 4q-6 -6 -72 -90q-8 -391 -6 -574l8 -282l-170 -185q-87 -10 -258 -10q-14 168 -20 326l149 -12q23 23 43 59v465q9 371 13 432q4 6 69 83q66 77 101 124h231z" />
    <glyph glyph-name="afii10059" unicode="&#x40a;" horiz-adv-x="1529"
d="M1190 445q0 82 8 354q-160 0 -203 -4q0 -63 3 -251t1 -296q55 6 119 6t84 -2q-12 111 -12 193zM754 88q0 570 -2 633q-223 -18 -324 -14q8 -154 7 -380t3 -356q-268 0 -295 2q-6 158 -12 544t-17 625q-12 239 -12 302l324 6v-514q45 2 136 8t188 4q-6 80 -11 500
q39 4 126 6t141 8q-10 -86 -15 -469q82 -4 271 -4q20 -25 70 -78t81 -94q2 -47 14 -608q-131 -156 -210 -232q-41 -2 -98 -2l-275 2l-92 3z" />
    <glyph glyph-name="afii10060" unicode="&#x40b;" horiz-adv-x="1142"
d="M559 279v-289l-280 -6l8 510q0 48 2 288t0 357q-178 10 -258 2q4 95 4 161t-4 152q605 0 770 6q2 -98 -6 -325q-164 0 -228 4q-2 -139 -2 -267q113 4 312 -2q36 -36 155 -172q-8 -345 8 -716q-47 4 -145 1t-135 -1q0 375 14 690q-145 6 -221 2q6 -78 6 -395z" />
    <glyph glyph-name="afii10061" unicode="&#x40c;" horiz-adv-x="1019"
d="M416 1532q-66 0 -86 4l205 375q164 16 344 6l-334 -385h-129zM102 -12q0 63 8 252t7 655q0 466 -6 541q90 4 147 4l115 2q-5 -48 -19 -574q125 0 156 -2q2 35 10 284t10 286q29 2 177 4t272 12l-8 -268q-25 0 -193 10q-8 -72 -14 -307q-47 -66 -119 -119v-10
q25 -16 120 -60t107 -53q17 -108 21 -192t8 -120t14 -157t17 -174q-25 -4 -295 -10q0 172 -29 624q-129 -12 -250 2q21 -284 21 -636q-176 4 -277 6z" />
    <glyph glyph-name="afii10062" unicode="&#x40e;" horiz-adv-x="1003"
d="M31 1434l301 14q57 -207 104 -448t56 -392h10q35 109 99 403q65 294 89 447q8 0 121 -12t162 -12q-160 -625 -330 -1112q-16 -47 -65 -202t-68 -198q-199 49 -285 58q158 340 162 352q-70 162 -166 504t-190 598zM891 1663q0 -90 -2 -137q-121 8 -355 5t-374 7h-2
q10 240 6 305q57 0 130 1t91 1q-6 -33 -16 -145q76 4 90 5t94 -4t94 -5q4 49 6 102l240 2q-2 -47 -2 -137z" />
    <glyph glyph-name="afii10145" unicode="&#x40f;" horiz-adv-x="1142"
d="M702 1454l338 -6q0 -956 -30 -1438q-209 -16 -320 -18q0 -113 -12 -297q-55 0 -138 5t-139 3q6 131 29 313l-303 -16q-8 245 -17 771q-8 525 -6 695q137 0 248 -6q8 -213 6 -600t-8 -489q49 8 179 10t180 -4q-8 88 -12 422q-3 334 5 655z" />
    <glyph glyph-name="afii10017" unicode="&#x410;" horiz-adv-x="1075"
d="M551 1241q-59 -389 -98 -575q59 16 200 8q-2 14 -28 122t-64 445h-10zM566 1442q66 0 171 -6q23 -123 68 -326t65 -330l144 -780q-82 -14 -277 -14l-61 481q-158 -18 -252 -2q-18 -141 -44 -277t-34 -198q-78 -10 -285 -10q23 148 76 373q186 795 225 1077l25 2
q113 10 179 10z" />
    <glyph glyph-name="afii10018" unicode="&#x411;" horiz-adv-x="1038"
d="M713 741q-207 -16 -312 2q9 -98 9 -272t-7 -244q135 20 314 6q-8 76 -9 248t5 260zM123 1436q578 -17 795 -17l-3 -215q-39 2 -260 0t-331 4q6 -51 -5 -192q162 16 297 20l125 4q29 -31 99 -86t84 -69q-2 -174 4 -389t6 -334q-25 -33 -119 -137q-384 -15 -508 -15
l-190 -4h-15z" />
    <glyph glyph-name="afii10019" unicode="&#x412;" horiz-adv-x="1038"
d="M486 266q96 0 147 -8q6 66 1 169t7 175q-168 37 -287 98q22 -294 -4 -450q40 16 136 16zM342 1116q0 -102 -4 -141q104 41 188 57q-20 162 -6 232q-61 -4 -184 4q6 -50 6 -152zM903 121q-101 -101 -139 -156q-97 4 -338 9q-242 5 -303 -1q-11 217 -11 801t-10 682
q20 -4 244 -10t375 -6q29 -51 113 -152q-14 -145 -11 -307q-13 0 -124 -40t-150 -56q45 -23 186 -62t191 -59q0 -195 -12 -366t-11 -277z" />
    <glyph glyph-name="afii10020" unicode="&#x413;" horiz-adv-x="864"
d="M373 1141l49 -1151q-44 -4 -148 -5t-149 -8q-6 72 -15 714t-6 739q328 16 682 6l17 -648l-228 -4q0 113 19 361q-125 -10 -221 -4z" />
    <glyph glyph-name="afii10021" unicode="&#x414;" horiz-adv-x="1177"
d="M739 1208q-96 -10 -258 -2q-39 -698 -82 -901q100 8 353 8q-38 418 -13 895zM330 -299l-275 -4q-23 563 -24 582q20 4 145 16q51 211 86 647q14 172 19 492l716 -11q-12 -133 -8 -612t4 -506l154 -10q-16 -215 -12 -625q-29 -6 -140 -4t-131 2q8 223 17 344
q-95 -8 -311 -13t-257 1q7 -45 15 -168t2 -131z" />
    <glyph glyph-name="afii10022" unicode="&#x415;" horiz-adv-x="876"
d="M502 303q24 0 136 2t124 0q6 -55 8 -176t4 -156l-643 13q0 1275 -29 1468q596 16 666 21v-224q-106 -12 -369 -4q4 -172 -4 -274q66 0 182 6t173 4q4 -47 3 -125t-1 -96q-184 4 -367 0l-18 -459h135z" />
    <glyph glyph-name="afii10024" unicode="&#x416;" horiz-adv-x="1564"
d="M234 -6q-99 0 -160 -2q2 28 8 108t11 166t17 220q11 134 13 163q18 4 103 43t124 66v10q-12 12 -55 52t-64 67q-10 152 -14 307l-186 -10l8 266q51 2 215 -7t219 -5q10 -100 7 -278t5 -283q96 8 144 8q-10 219 2 581h146q120 0 157 -2q2 -90 -8 -573q63 0 149 -6
q-6 147 10 551q222 16 449 16q-8 -172 -8 -268l-189 6q2 -72 -5 -161t-7 -144q-76 -78 -125 -117v-10l193 -117q8 -111 59 -655q-111 10 -297 -15l-25 645q-143 -8 -270 -4q20 -223 25 -639q-244 0 -326 -6q-8 334 21 647q-178 -6 -193 -4l-29 -616h-124z" />
    <glyph glyph-name="afii10025" unicode="&#x417;" horiz-adv-x="968"
d="M393 920l-276 8q6 410 -2 514q387 -14 628 -29q19 -25 57 -57t60 -58q-6 -184 -6 -426q-27 -25 -130 -84t-116 -67q149 -64 258 -123q0 -100 -10 -459q-25 -23 -43 -45t-43 -50q-25 -30 -41 -50q-113 -2 -297 -14t-348 -17q-35 211 -18 533q34 -4 114 -6t113 -3
q4 -197 -2 -299q201 12 280 5q-6 162 4 329q-31 20 -125 76t-151 113q45 45 175 129t173 116q4 102 12 209q-174 -4 -262 6q-4 -74 -4 -251z" />
    <glyph glyph-name="afii10026" unicode="&#x418;" horiz-adv-x="1089"
d="M700 1434q201 0 287 14q-2 -111 -7 -645t-17 -842q-205 0 -275 -14q-2 307 14 512q-139 -172 -366 -322q4 -129 4 -147q-35 -4 -109 -3t-116 -7q-9 204 -13 1468q125 0 234 4q4 -811 -2 -1024q96 90 360 299q10 514 2 707h4z" />
    <glyph glyph-name="afii10027" unicode="&#x419;" horiz-adv-x="1120"
d="M741 1434q201 0 287 14q-2 -111 -7 -645t-17 -842q-205 0 -275 -14q-2 307 14 512q-139 -172 -366 -322q4 -129 4 -147q-35 -4 -109 -3t-116 -7q-9 204 -13 1468q125 0 234 4q4 -811 -2 -1024q96 90 360 299q10 514 2 707h4zM948 1667q0 -90 -2 -137q-121 8 -355 5
t-374 7h-2q10 240 6 305q57 0 130 1t91 1q-6 -33 -16 -145q76 4 90 5t94 -4t95 -5q4 49 6 102l239 2q-2 -47 -2 -137z" />
    <glyph glyph-name="afii10028" unicode="&#x41a;" horiz-adv-x="1019"
d="M102 -12q0 63 8 252t7 655q0 466 -6 541q90 4 147 4l115 2q-5 -48 -19 -574q125 0 156 -2q2 35 10 284t10 286q29 2 177 4t272 12l-8 -268q-25 0 -193 10q-8 -72 -14 -307q-47 -66 -119 -119v-10q25 -16 120 -60t107 -53q17 -108 21 -192t8 -120t14 -157t17 -174
q-25 -4 -295 -10q0 172 -29 624q-129 -12 -250 2q21 -284 21 -636q-176 4 -277 6z" />
    <glyph glyph-name="afii10029" unicode="&#x41b;" horiz-adv-x="1120"
d="M668 1446q197 0 321 -2q0 -352 29 -1458q-72 -6 -270 -6q2 96 2 388v431q0 63 14 311q-80 -12 -205 0q-53 -57 -72 -90q-8 -391 -6 -574l8 -282q-3 -4 -39 -43t-77 -83t-54 -58q-96 -11 -258 -11q-14 168 -20 326l149 -12q35 35 43 59v465q9 371 13 432q4 6 69 83
q66 77 101 124h252z" />
    <glyph glyph-name="afii10030" unicode="&#x41c;" horiz-adv-x="1296"
d="M889 1370v90q201 4 276 17q8 -967 29 -1493q-98 0 -295 -4q10 242 10 360l2 461h-10q-109 -264 -254 -475h-10q-47 82 -128 244t-114 266h-10q8 -213 8 -525l6 -331q-59 2 -123 2t-170 -5q6 166 7 461l-4 733l-7 265q252 35 281 45q33 -78 155 -322t162 -346h11
q16 43 86 208t94 253q-2 28 -2 96z" />
    <glyph glyph-name="afii10031" unicode="&#x41d;" horiz-adv-x="1157"
d="M426 936q264 14 373 12q-6 80 -11 500q39 4 126 6t141 8q-13 -114 -15 -622t7 -844q-170 0 -244 -6q4 547 10 649q-240 -18 -385 -14q8 -152 7 -338t3 -316q-16 0 -147 -5t-144 3q-13 168 -18 568t-16 622t-11 285l324 6v-514z" />
    <glyph glyph-name="afii10032" unicode="&#x41e;" horiz-adv-x="1075"
d="M332 680q0 -74 8 -258t8 -260q121 35 287 24v715q0 119 8 215q-172 -4 -307 21q4 -49 0 -216t-4 -241zM965 668l-2 -310q0 -109 2 -161q-35 -80 -99 -211q-121 -10 -250 -11h-368q-33 46 -70 82t-51 52q-10 138 -10 548l-15 551q16 37 71 112q54 75 71 105q66 -4 174 -4
l434 11q12 -29 48 -82t48 -76q16 -356 17 -606z" />
    <glyph glyph-name="afii10033" unicode="&#x41f;" horiz-adv-x="1146"
d="M1030 1466l2 -231v-152l12 -1099l-290 -9q-8 63 -8 443t8 680q-180 -8 -344 6q20 -262 20 -500l10 -635q-61 2 -169 -3t-150 -5q2 117 -4 319t-6 699l-7 469q678 4 926 18z" />
    <glyph glyph-name="afii10034" unicode="&#x420;" horiz-adv-x="950"
d="M358 1096q0 -87 7 -312t8 -231q57 8 103 8t83 -4q-18 454 2 678q-152 -10 -207 -6q4 -46 4 -133zM127 -37l-2 768q0 280 -23 705q344 -13 480 -13t192 7q66 -98 74 -109q-12 -166 -12 -856q-18 -25 -52 -77t-57 -79q-127 -18 -213 -18t-145 8q8 -274 14 -338
q-53 -2 -109 -2t-102 2z" />
    <glyph glyph-name="afii10035" unicode="&#x421;" horiz-adv-x="882"
d="M585 -4q-161 0 -345 -16q-47 63 -79 117q-32 53 -52 83q10 312 10 400t6 387t-2 348q27 37 73 82t58 59q152 -4 274 -4t254 14l13 -448v-117q-27 2 -172 2h-72q-2 66 8 254q-107 4 -203 0q12 -150 13 -563l8 -299q0 -84 -2 -105q12 0 188 4t238 1l-6 -201q-49 2 -210 2z
" />
    <glyph glyph-name="afii10036" unicode="&#x422;" horiz-adv-x="833"
d="M35 1280q0 66 -4 154q605 0 770 6q2 -98 -6 -326q-164 0 -228 4q-2 -264 -2 -387l-8 -580l2 -161l-280 -6l8 510q0 49 2 278t0 346q-178 10 -258 2q4 94 4 160z" />
    <glyph glyph-name="afii10037" unicode="&#x423;" horiz-adv-x="1003"
d="M31 1434l301 14q57 -207 104 -448t56 -392h10q35 109 99 403q65 294 89 447q8 0 121 -12t162 -12q-160 -625 -330 -1112q-16 -47 -65 -202t-68 -198q-199 49 -285 58q158 340 162 352q-70 162 -166 504t-190 598z" />
    <glyph glyph-name="afii10038" unicode="&#x424;" horiz-adv-x="1331"
d="M457 569q88 0 129 -2q-6 55 -8 289t8 295q-133 -12 -254 0q6 -86 4 -305t-8 -279q41 2 129 2zM821 494q27 6 109 8t102 -2q-6 51 -5 306t5 302q-82 -6 -201 0q6 -42 4 -288t-14 -326zM724 1591q104 0 169 -8l-14 -203q35 2 249 2q23 -27 99 -102q6 -510 -27 -932
q-84 -68 -176 -135q-59 2 -178 16l2 -256q-18 1 -140 7t-188 4q2 4 23 252q-145 -23 -361 -23l-71 76q-8 137 -9 289q0 152 4 341t5 298q98 115 118 149q190 8 349 -2l-5 229q47 -2 151 -2z" />
    <glyph glyph-name="afii10039" unicode="&#x425;" horiz-adv-x="1044"
d="M399 1446l-6 -422q102 -68 191 -154l92 99l-27 456q190 16 264 13q6 -104 -1 -268t-15 -214q-117 -117 -199 -153q145 -59 222 -105q8 -63 10 -348t12 -368q-242 8 -305 8l-19 585q-61 55 -79 78q-32 -46 -101 -112l-22 -23q25 -305 20 -538q-31 2 -321 -5q25 315 24 584
q180 139 277 184q-90 44 -242 134l-49 30q-8 94 -13 294t-10 243q284 0 297 2z" />
    <glyph glyph-name="afii10040" unicode="&#x426;" horiz-adv-x="1163"
d="M600 1454l338 -6q0 -938 -12 -1081q66 3 176 -2l41 -5q-13 -190 -23 -416t-12 -249l-215 8q6 131 29 313l-795 -16q-8 245 -17 771q-8 525 -6 695q137 0 248 -6q8 -213 6 -600t-8 -489q123 23 256 6q-8 88 -11 422t5 655z" />
    <glyph glyph-name="afii10041" unicode="&#x427;" horiz-adv-x="993"
d="M889 -14q-212 7 -299 -15q-4 305 16 498q-29 -4 -119 -12t-153 -21q-121 96 -234 139q4 49 -12 433t-27 460q201 0 287 -2q-10 -473 -24 -635q24 5 134 7t138 -2q-8 374 -10 632q18 0 145 9l152 12z" />
    <glyph glyph-name="afii10042" unicode="&#x428;" horiz-adv-x="1488"
d="M1380 1286q0 -76 5 -460q5 -383 -7 -861q-232 17 -375 17h-288h-232q-141 0 -381 -5q0 19 8 108t5 689q-4 600 -2 696q248 0 272 3q0 -653 -35 -1125q141 20 250 10q-2 117 -2 514t4 635l289 -6q-2 -117 -7 -552t-20 -640q102 14 207 4l12 686q0 370 -10 476l309 6
q-2 -119 -2 -195z" />
    <glyph glyph-name="afii10043" unicode="&#x429;" horiz-adv-x="1497"
d="M431 -4q-275 0 -320 -4q0 8 -6 593q-5 585 6 869q175 0 268 -6q-5 -115 -19 -541t-26 -563q74 10 201 0q6 75 7 326t5 454t6 340q43 2 147 0t156 2q-29 -905 -49 -1089q57 4 221 -4q-4 57 -4 229q8 255 27 862v2l266 -8q-14 -426 -17 -565q0 -330 -6 -520q29 -2 84 0
t88 -2q-2 -70 -12 -318t-10 -370q-199 8 -309 2q-14 94 -15 286q-414 25 -689 25z" />
    <glyph glyph-name="afii10044" unicode="&#x42a;" horiz-adv-x="1085"
d="M516 791l6 -213q0 -176 -26 -326q121 10 229 -2q-12 274 -4 534q-113 -4 -205 7zM27 1311l-7 135q147 -6 490 -6q14 -207 14 -459l293 -6q25 -23 71 -66t73 -63q23 -297 22 -557l-4 -217q-13 -18 -54 -60q-41 -43 -55 -59q-124 0 -204 6q-186 14 -424 14q-4 61 -4 271
l-7 508q-2 90 -5 202t-3 170l-194 4z" />
    <glyph glyph-name="afii10045" unicode="&#x42b;" horiz-adv-x="1304"
d="M918 535q0 235 -10 495t-9 424l283 -10q0 -386 9 -792t11 -656l-284 12v527zM297 729q8 -93 13 -251t3 -212q100 16 205 -2q-18 276 -14 457q-98 -8 -207 8zM102 1452l283 -8q0 -120 -16 -440q94 0 217 -9q26 -27 70 -69t65 -68q5 -365 35 -729q-25 -20 -68 -60t-72 -63
q-305 -14 -493 4q-4 184 -6 448t-4 344q-2 79 -4 302q-3 223 -7 348z" />
    <glyph glyph-name="afii10046" unicode="&#x42c;" horiz-adv-x="954"
d="M393 788l4 -540q23 2 71 4t89 6l49 4q-14 129 -14 195l-12 342q-78 0 -187 -11zM850 274v-165q-10 -12 -105 -123q-70 0 -206 -8t-334 -7l-92 2q8 346 -11 1481l258 2v-461q78 -8 324 -8q20 -15 76 -71t80 -74q10 -221 10 -568z" />
    <glyph glyph-name="afii10047" unicode="&#x42d;" horiz-adv-x="991"
d="M213 924l367 6q-10 145 2 270q-45 43 -95 107q-125 6 -139 6q10 -102 6 -258q-156 4 -286 -6q8 135 14 419q236 4 506 15q67 -61 159 -135t119 -97q-23 -471 23 -1040q-174 -207 -197 -234q-332 0 -624 23q-6 301 -7 391l281 6q0 -88 -8 -194q113 0 223 6q-8 176 10 354
q-117 -10 -331 -4q-6 205 -23 365z" />
    <glyph glyph-name="afii10048" unicode="&#x42e;" horiz-adv-x="1458"
d="M1055 176q55 0 78 -2q-23 586 -23 738t12 231q-126 -10 -237 8q0 -57 6 -444t-2 -535q111 4 166 4zM371 167q0 -167 -2 -187l-254 8q-4 135 -9 750q-4 615 -2 728q59 -6 143 -6h111q6 -547 2 -629q129 14 195 -4l8 467q43 41 158 138l528 10q52 -52 101 -111
q-6 -242 -5 -602t-4 -612q-100 -70 -186 -133q-291 0 -506 6q-16 14 -47 43t-47 43q8 102 8 336q-74 -4 -196 2q4 -80 4 -247z" />
    <glyph glyph-name="afii10049" unicode="&#x42f;" horiz-adv-x="1077"
d="M383 1235q2 -27 2 -432q260 23 283 26q0 103 -12 238t-13 170q-27 2 -115 -1t-145 -1zM291 1442q385 10 635 4q10 -115 22 -639t27 -819q-43 4 -153 -1t-144 -10q0 233 -6 459q-45 -10 -92 -16q-10 -23 -209 -473q-37 10 -310 67q27 42 111 188t145 240q-166 94 -172 99
q-27 432 -22 739q109 109 168 162z" />
    <glyph glyph-name="afii10065" unicode="&#x430;" horiz-adv-x="1075"
d="M551 1241q-59 -389 -98 -575q59 16 200 8q-2 14 -28 122t-64 445h-10zM566 1442q66 0 171 -6q23 -123 68 -326t65 -330l144 -780q-82 -14 -277 -14l-61 481q-158 -18 -252 -2q-18 -141 -44 -277t-34 -198q-78 -10 -285 -10q23 148 76 373q186 795 225 1077l25 2
q113 10 179 10z" />
    <glyph glyph-name="afii10066" unicode="&#x431;" horiz-adv-x="1038"
d="M713 741q-207 -16 -312 2q9 -98 9 -272t-7 -244q135 20 314 6q-8 76 -9 248t5 260zM123 1436q578 -17 795 -17l-3 -215q-39 2 -260 0t-331 4q6 -51 -5 -192q162 16 297 20l125 4q29 -31 99 -86t84 -69q-2 -174 4 -389t6 -334q-25 -33 -119 -137q-384 -15 -508 -15
l-190 -4h-15z" />
    <glyph glyph-name="afii10067" unicode="&#x432;" horiz-adv-x="1038"
d="M486 266q96 0 147 -8q6 66 1 169t7 175q-168 37 -287 98q22 -294 -4 -450q40 16 136 16zM342 1116q0 -102 -4 -141q104 41 188 57q-20 162 -6 232q-61 -4 -184 4q6 -50 6 -152zM903 121q-101 -101 -139 -156q-97 4 -338 9q-242 5 -303 -1q-11 217 -11 801t-10 682
q20 -4 244 -10t375 -6q29 -51 113 -152q-14 -145 -11 -307q-13 0 -124 -40t-150 -56q45 -23 186 -62t191 -59q0 -195 -12 -366t-11 -277z" />
    <glyph glyph-name="afii10068" unicode="&#x433;" horiz-adv-x="864"
d="M373 1141l49 -1151q-44 -4 -148 -5t-149 -8q-6 72 -15 714t-6 739q328 16 682 6l17 -648l-228 -4q0 113 19 361q-125 -10 -221 -4z" />
    <glyph glyph-name="afii10069" unicode="&#x434;" horiz-adv-x="1177"
d="M739 1208q-96 -10 -258 -2q-39 -698 -82 -901q100 8 353 8q-38 418 -13 895zM330 -299l-275 -4q-23 563 -24 582q20 4 145 16q51 211 86 647q14 172 19 492l716 -11q-12 -133 -8 -612t4 -506l154 -10q-16 -215 -12 -625q-29 -6 -140 -4t-131 2q8 223 17 344
q-95 -8 -311 -13t-257 1q7 -45 15 -168t2 -131z" />
    <glyph glyph-name="afii10070" unicode="&#x435;" horiz-adv-x="876"
d="M502 303q24 0 136 2t124 0q6 -55 8 -176t4 -156l-643 13q0 1275 -29 1468q596 16 666 21v-224q-106 -12 -369 -4q4 -172 -4 -274q66 0 182 6t173 4q4 -47 3 -125t-1 -96q-184 4 -367 0l-18 -459h135z" />
    <glyph glyph-name="afii10072" unicode="&#x436;" horiz-adv-x="1564"
d="M234 -6q-99 0 -160 -2q2 28 8 108t11 166t17 220q11 134 13 163q18 4 103 43t124 66v10q-12 12 -55 52t-64 67q-10 152 -14 307l-186 -10l8 266q51 2 215 -7t219 -5q10 -100 7 -278t5 -283q96 8 144 8q-10 219 2 581h146q120 0 157 -2q2 -90 -8 -573q63 0 149 -6
q-6 147 10 551q222 16 449 16q-8 -172 -8 -268l-189 6q2 -72 -5 -161t-7 -144q-76 -78 -125 -117v-10l193 -117q8 -111 59 -655q-111 10 -297 -15l-25 645q-143 -8 -270 -4q20 -223 25 -639q-244 0 -326 -6q-8 334 21 647q-178 -6 -193 -4l-29 -616h-124z" />
    <glyph glyph-name="afii10073" unicode="&#x437;" horiz-adv-x="968"
d="M393 920l-276 8q6 410 -2 514q387 -14 628 -29q19 -25 57 -57t60 -58q-6 -184 -6 -426q-27 -25 -130 -84t-116 -67q149 -64 258 -123q0 -100 -10 -459q-25 -23 -43 -45t-43 -50q-25 -30 -41 -50q-113 -2 -297 -14t-348 -17q-35 211 -18 533q34 -4 114 -6t113 -3
q4 -197 -2 -299q201 12 280 5q-6 162 4 329q-31 20 -125 76t-151 113q45 45 175 129t173 116q4 102 12 209q-174 -4 -262 6q-4 -74 -4 -251z" />
    <glyph glyph-name="afii10074" unicode="&#x438;" horiz-adv-x="1089"
d="M700 1434q201 0 287 14q-2 -111 -7 -645t-17 -842q-205 0 -275 -14q-2 307 14 512q-139 -172 -366 -322q4 -129 4 -147q-35 -4 -109 -3t-116 -7q-9 204 -13 1468q125 0 234 4q4 -811 -2 -1024q96 90 360 299q10 514 2 707h4z" />
    <glyph glyph-name="afii10075" unicode="&#x439;" horiz-adv-x="1120"
d="M946 1667q0 -90 -2 -137q-121 8 -355 5t-374 7h-2q10 240 6 305q57 0 130 1t91 1q-6 -33 -16 -145q76 4 90 5t94 -4t94 -5q4 49 7 102l239 2q-2 -47 -2 -137zM741 1434q201 0 287 14q-2 -111 -7 -645t-17 -842q-205 0 -275 -14q-2 307 14 512q-139 -172 -366 -322
q4 -129 4 -147q-35 -4 -109 -3t-116 -7q-9 204 -13 1468q125 0 234 4q4 -811 -2 -1024q96 90 360 299q10 514 2 707h4z" />
    <glyph glyph-name="afii10076" unicode="&#x43a;" horiz-adv-x="1032"
d="M102 -12q0 63 8 252t7 655q0 466 -6 541q90 4 147 4l115 2q-5 -48 -19 -574q125 0 156 -2q2 35 10 284t10 286q29 2 177 4t272 12l-8 -268q-25 0 -193 10q-8 -72 -14 -307q-47 -66 -119 -119v-10q25 -16 120 -60t107 -53q17 -108 21 -192t8 -120t14 -157t17 -174
q-25 -4 -295 -10q0 172 -29 624q-129 -12 -250 2q21 -284 21 -636q-176 4 -277 6z" />
    <glyph glyph-name="afii10077" unicode="&#x43b;" horiz-adv-x="1120"
d="M668 1446q197 0 321 -2q0 -352 29 -1458q-72 -6 -270 -6q2 96 2 388v431q0 63 14 311q-80 -12 -205 0q-53 -57 -72 -90q-8 -391 -6 -574l8 -282q-3 -4 -39 -43t-77 -83t-54 -58q-96 -11 -258 -11q-14 168 -20 326l149 -12q35 35 43 59v465q9 371 13 432q4 6 69 83
q66 77 101 124h252z" />
    <glyph glyph-name="afii10078" unicode="&#x43c;" horiz-adv-x="1296"
d="M889 1370v90q201 4 276 17q8 -967 29 -1493q-98 0 -295 -4q10 242 10 360l2 461h-10q-109 -264 -254 -475h-10q-47 82 -128 244t-114 266h-10q8 -213 8 -525l6 -331q-59 2 -123 2t-170 -5q6 166 7 461l-4 733l-7 265q252 35 281 45q33 -78 155 -322t162 -346h11
q16 43 86 208t94 253q-2 28 -2 96z" />
    <glyph glyph-name="afii10079" unicode="&#x43d;" horiz-adv-x="1157"
d="M426 936q264 14 373 12q-6 80 -11 500q39 4 126 6t141 8q-13 -114 -15 -622t7 -844q-170 0 -244 -6q4 547 10 649q-240 -18 -385 -14q8 -152 7 -338t3 -316q-16 0 -147 -5t-144 3q-13 168 -18 568t-16 622t-11 285l324 6v-514z" />
    <glyph glyph-name="afii10080" unicode="&#x43e;" horiz-adv-x="1075"
d="M332 680q0 -74 8 -258t8 -260q121 35 287 24v715q0 119 8 215q-172 -4 -307 21q4 -49 0 -216t-4 -241zM965 668l-2 -310q0 -109 2 -161q-35 -80 -99 -211q-121 -10 -250 -11h-368q-33 46 -70 82t-51 52q-10 138 -10 548l-15 551q16 37 71 112q54 75 71 105q66 -4 174 -4
l434 11q12 -29 48 -82t48 -76q16 -356 17 -606z" />
    <glyph glyph-name="afii10081" unicode="&#x43f;" horiz-adv-x="1146"
d="M1030 1466l2 -231v-152l12 -1099l-290 -9q-8 63 -8 443t8 680q-180 -8 -344 6q20 -262 20 -500l10 -635q-61 2 -169 -3t-150 -5q2 117 -4 319t-6 699l-7 469q678 4 926 18z" />
    <glyph glyph-name="afii10082" unicode="&#x440;" horiz-adv-x="950"
d="M358 1096q0 -87 7 -312t8 -231q57 8 103 8t83 -4q-18 454 2 678q-152 -10 -207 -6q4 -46 4 -133zM127 -37l-2 768q0 280 -23 705q344 -13 480 -13t192 7q66 -98 74 -109q-12 -166 -12 -856q-18 -25 -52 -77t-57 -79q-127 -18 -213 -18t-145 8q8 -274 14 -338
q-53 -2 -109 -2t-102 2z" />
    <glyph glyph-name="afii10083" unicode="&#x441;" horiz-adv-x="903"
d="M585 -4q-161 0 -345 -16q-47 63 -79 117q-32 53 -52 83q10 312 10 400t6 387t-2 348q27 37 73 82t58 59q152 -4 274 -4t254 14l13 -448v-117q-27 2 -172 2h-72q-2 66 8 254q-107 4 -203 0q12 -150 13 -563l8 -299q0 -84 -2 -105q12 0 188 4t238 1l-6 -201q-49 2 -210 2z
" />
    <glyph glyph-name="afii10084" unicode="&#x442;" horiz-adv-x="833"
d="M35 1280q0 66 -4 154q605 0 770 6q2 -98 -6 -326q-164 0 -228 4q-2 -264 -2 -387l-8 -580l2 -161l-280 -6l8 510q0 49 2 278t0 346q-178 10 -258 2q4 94 4 160z" />
    <glyph glyph-name="afii10085" unicode="&#x443;" horiz-adv-x="1003"
d="M31 1434l301 14q57 -207 104 -448t56 -392h10q35 109 99 403q65 294 89 447q8 0 121 -12t162 -12q-160 -625 -330 -1112q-16 -47 -65 -202t-68 -198q-199 49 -285 58q158 340 162 352q-70 162 -166 504t-190 598z" />
    <glyph glyph-name="afii10086" unicode="&#x444;" horiz-adv-x="1331"
d="M448 569q88 0 130 -2q-6 55 -8 289t8 295q-133 -12 -254 0q6 -86 4 -305t-9 -279q41 2 129 2zM813 494q27 6 109 8t102 -2q-6 51 -5 306t5 302q-82 -6 -201 0q6 -42 4 -288t-14 -326zM715 1591q103 0 170 -8q-10 -145 -15 -203q35 2 250 2q23 -27 99 -102
q6 -510 -27 -932q-84 -68 -176 -135q-59 2 -178 16l2 -256q-18 1 -140 7t-188 4q2 4 23 252q-145 -23 -361 -23l-72 76q-8 137 -8 289l8 639q98 115 119 149q190 8 348 -2l-4 229q47 -2 150 -2z" />
    <glyph glyph-name="afii10087" unicode="&#x445;" horiz-adv-x="1044"
d="M399 1446l-6 -422q102 -68 191 -154l92 99l-27 456q190 16 264 13q6 -104 -1 -268t-15 -214q-117 -117 -199 -153q145 -59 222 -105q8 -63 10 -348t12 -368q-242 8 -305 8l-19 585q-61 55 -79 78q-32 -46 -101 -112l-22 -23q25 -305 20 -538q-31 2 -321 -5q25 315 24 584
q180 139 277 184q-90 44 -242 134l-49 30q-8 94 -13 294t-10 243q284 0 297 2z" />
    <glyph glyph-name="afii10088" unicode="&#x446;" horiz-adv-x="1163"
d="M600 1454l338 -6q0 -938 -12 -1081q66 3 176 -2l41 -5q-13 -190 -23 -416t-12 -249l-215 8q6 131 29 313l-795 -16q-8 245 -17 771q-8 525 -6 695q137 0 248 -6q8 -213 6 -600t-8 -489q123 23 256 6q-8 88 -11 422t5 655z" />
    <glyph glyph-name="afii10089" unicode="&#x447;" horiz-adv-x="993"
d="M907 -14q-212 7 -299 -15q-4 305 17 498q-29 -4 -119 -12t-154 -21q-121 96 -233 139q3 49 -13 433t-26 460q201 0 287 -2q-10 -457 -25 -635q24 5 134 7t138 -2q-8 374 -10 632q18 0 146 9l151 12z" />
    <glyph glyph-name="afii10090" unicode="&#x448;" horiz-adv-x="1488"
d="M1380 1286q0 -76 5 -460q5 -383 -7 -861q-232 17 -375 17h-288h-232q-141 0 -381 -5q0 19 8 108t5 689q-4 600 -2 696q248 0 272 3q0 -653 -35 -1125q141 20 250 10q-2 117 -2 514t4 635l289 -6q-2 -117 -7 -552t-20 -640q102 14 207 4l12 686q0 370 -10 476l309 6
q-2 -119 -2 -195z" />
    <glyph glyph-name="afii10091" unicode="&#x449;" horiz-adv-x="1497"
d="M431 -4q-275 0 -320 -4q0 8 -6 593q-5 585 6 869q175 0 268 -6q-5 -115 -19 -541t-26 -563q74 10 201 0q6 75 7 326t5 454t6 340q43 2 147 0t156 2q-29 -905 -49 -1089q57 4 221 -4q-4 57 -4 229q8 255 27 862v2l266 -8q-14 -426 -17 -565q0 -330 -6 -520q29 -2 84 0
t88 -2q-2 -70 -12 -318t-10 -370q-199 8 -309 2q-14 94 -15 286q-414 25 -689 25z" />
    <glyph glyph-name="afii10092" unicode="&#x44a;" horiz-adv-x="1085"
d="M516 791l6 -213q0 -176 -26 -326q121 10 229 -2q-12 274 -4 534q-113 -4 -205 7zM27 1311l-7 135q147 -6 490 -6q14 -207 14 -459l293 -6q25 -23 71 -66t73 -63q23 -297 22 -557l-4 -217q-13 -18 -54 -60q-41 -43 -55 -59q-124 0 -204 6q-186 14 -424 14q-4 61 -4 271
l-7 508q-2 90 -5 202t-3 170l-194 4z" />
    <glyph glyph-name="afii10093" unicode="&#x44b;" horiz-adv-x="1304"
d="M918 535q0 235 -10 495t-9 424l283 -10q0 -386 9 -792t11 -656l-284 12v527zM297 729q8 -93 13 -251t3 -212q100 16 205 -2q-18 276 -14 457q-98 -8 -207 8zM102 1452l283 -8q0 -120 -16 -440q94 0 217 -9q26 -27 70 -69t65 -68q5 -365 35 -729q-25 -20 -68 -60t-72 -63
q-305 -14 -493 4q-4 184 -6 448t-4 344q-2 79 -4 302q-3 223 -7 348z" />
    <glyph glyph-name="afii10094" unicode="&#x44c;" horiz-adv-x="954"
d="M393 788l4 -540q23 2 71 4t89 6l49 4q-14 129 -14 195l-12 342q-78 0 -187 -11zM850 274v-165q-10 -12 -105 -123q-70 0 -206 -8t-334 -7l-92 2q8 346 -11 1481l258 2v-461q78 -8 324 -8q20 -15 76 -71t80 -74q10 -221 10 -568z" />
    <glyph glyph-name="afii10095" unicode="&#x44d;" horiz-adv-x="991"
d="M213 924l367 6q-10 145 2 270q-45 43 -95 107q-125 6 -139 6q10 -102 6 -258q-156 4 -286 -6q8 135 14 419q236 4 506 15q67 -61 159 -135t119 -97q-23 -471 23 -1040q-174 -207 -197 -234q-332 0 -624 23q-6 301 -7 391l281 6q0 -88 -8 -194q113 0 223 6q-8 176 10 354
q-117 -10 -331 -4q-6 205 -23 365z" />
    <glyph glyph-name="afii10096" unicode="&#x44e;" horiz-adv-x="1458"
d="M1055 176q55 0 78 -2q-23 586 -23 738t12 231q-126 -10 -237 8q0 -57 6 -444t-2 -535q111 4 166 4zM371 167q0 -167 -2 -187l-254 8q-4 135 -9 750q-4 615 -2 728q59 -6 143 -6h111q6 -547 2 -629q129 14 195 -4l8 467q43 41 158 138l528 10q52 -52 101 -111
q-6 -242 -5 -602t-4 -612q-100 -70 -186 -133q-291 0 -506 6q-16 14 -47 43t-47 43q8 102 8 336q-74 -4 -196 2q4 -80 4 -247z" />
    <glyph glyph-name="afii10097" unicode="&#x44f;" horiz-adv-x="1077"
d="M383 1235q2 -27 2 -432q260 23 283 26q0 103 -12 238t-13 170q-27 2 -115 -1t-145 -1zM291 1442q385 10 635 4q10 -115 22 -639t27 -819q-43 4 -153 -1t-144 -10q0 233 -6 459q-45 -10 -92 -16q-10 -23 -209 -473q-37 10 -310 67q27 42 111 188t145 240q-166 94 -172 99
q-27 432 -22 739q109 109 168 162z" />
    <glyph glyph-name="afii10071" unicode="&#x451;" horiz-adv-x="835"
d="M100 1587q0 139 -10 203q38 16 140 16t155 -12l-4 -119v-104q0 -12 4 -33l-170 -4q-63 0 -115 14v39zM721 1651q0 -97 2 -107q-16 -2 -49 -2t-99 -3t-106 -1q-2 14 -2 112t-12 134q100 18 241 18h39q-14 -54 -14 -151zM481 303q23 0 135 2t125 0q7 -55 9 -176t4 -156
l-643 13q0 1275 -29 1468q596 16 666 21v-224q-106 -12 -369 -4q4 -172 -4 -274q65 0 181 6t173 4q4 -47 3 -125t-1 -96q-182 4 -366 0l-19 -459h135z" />
    <glyph glyph-name="afii10099" unicode="&#x452;" horiz-adv-x="1118"
d="M553 627l6 -476v-161l-280 -6l8 510q0 48 2 288t0 357q-178 10 -258 2q4 95 4 161t-4 152q605 0 770 6q2 -98 -6 -325q-164 0 -228 4q-2 -139 -2 -267q170 8 244 11q25 -20 207 -160q-25 -242 -8 -975q-23 -20 -71 -65t-81 -74q-86 -4 -144 -4t-85 4l4 129q0 61 -4 102
h75l62 2q0 553 10 789q-106 -14 -221 -4z" />
    <glyph glyph-name="afii10100" unicode="&#x453;" horiz-adv-x="843"
d="M373 1141l49 -1151q-44 -4 -148 -5t-149 -8q-6 72 -15 714t-6 739q328 16 682 6l17 -648l-228 -4q0 113 19 361q-125 -10 -221 -4zM307 1534q-66 0 -86 4l205 375q164 16 344 6l-334 -385h-129z" />
    <glyph glyph-name="afii10101" unicode="&#x454;" horiz-adv-x="1021"
d="M639 397l281 -6q0 -90 -7 -391q-293 -23 -624 -23q-23 27 -197 234q45 569 23 1040q27 23 119 97t159 135q270 -10 506 -15q6 -285 14 -419q-131 10 -286 6q-4 156 6 258q-14 0 -139 -6q-49 -63 -95 -107q12 -125 2 -270q68 2 197 -2t170 -4q-16 -160 -23 -365
q-217 -6 -331 4q18 -178 10 -354q111 -6 223 -6q-8 106 -8 194z" />
    <glyph glyph-name="afii10102" unicode="&#x455;" horiz-adv-x="1011"
d="M563 4q-188 0 -346 -27q-25 29 -67 59t-48 36q20 313 17 426q41 -4 115 -3t122 -6q-12 -166 -16 -227q51 6 139 6t135 -2q-18 276 -8 406q-82 -10 -183 -8t-171 0q-16 28 -70 100t-76 115q0 35 5 167q4 132 -2 185q4 8 129 203l450 22q27 -35 80 -70t86 -67
q-12 -106 0 -318l-256 -4q-6 49 10 238q-176 -14 -260 0q20 -225 4 -365q4 6 182 4t226 -2q39 -49 123 -124q0 -262 26 -629q-53 -49 -102 -115h-244z" />
    <glyph glyph-name="afii10103" unicode="&#x456;" horiz-adv-x="522"
d="M324 -14q-53 0 -127 -4q-17 378 -17 652t-5 430t-5 384l106 4q90 0 164 8q17 -1124 41 -1474h-157z" />
    <glyph glyph-name="afii10104" unicode="&#x457;" horiz-adv-x="645"
d="M203 634l-10 814l106 4q90 0 164 8q17 -1124 41 -1474h-158q-53 0 -127 -4q-16 378 -16 652zM10 1587q0 139 -10 203q38 16 140 16t155 -12l-4 -119v-104q0 -12 4 -33l-170 -4q-63 0 -115 14v39zM631 1651q0 -97 2 -107q-16 -2 -49 -2t-99 -3t-106 -1q-2 14 -2 112
t-12 134q100 18 241 18h39q-14 -54 -14 -151z" />
    <glyph glyph-name="afii10105" unicode="&#x458;" horiz-adv-x="794"
d="M680 734q0 -508 2 -628q-80 -96 -92 -106q-78 -2 -334 -23q-12 7 -83 49t-112 60q-12 72 -22 287l242 10l10 -190q100 20 147 20q-23 811 -28 1235l282 -4q-12 -202 -12 -710z" />
    <glyph glyph-name="afii10106" unicode="&#x459;" horiz-adv-x="1492"
d="M1076 254q44 0 67 -4q-6 55 -6 201l-9 337q-115 -16 -172 -10q0 -453 -12 -534q88 10 132 10zM647 1442q176 0 301 -2q0 -31 -16 -463q78 16 287 12q117 -129 151 -172q23 -535 19 -717q-94 -100 -113 -114q-70 0 -206 -8t-273 -7l-92 2l4 779q0 223 10 350
q-102 -4 -160 4q-6 -6 -72 -90q-8 -391 -6 -574l8 -282l-170 -185q-87 -10 -258 -10q-14 168 -20 326l149 -12q23 23 43 59v465q9 371 13 432q4 6 69 83q66 77 101 124h231z" />
    <glyph glyph-name="afii10107" unicode="&#x45a;" horiz-adv-x="1529"
d="M1190 445q0 82 8 354q-160 0 -203 -4q0 -63 3 -251t1 -296q55 6 119 6t84 -2q-12 111 -12 193zM754 88q0 570 -2 633q-223 -18 -324 -14q8 -154 7 -380t3 -356q-268 0 -295 2q-6 158 -12 544t-17 625q-12 239 -12 302l324 6v-514q45 2 136 8t188 4q-6 80 -11 500
q39 4 126 6t141 8q-10 -86 -15 -469q82 -4 271 -4q20 -25 70 -78t81 -94q2 -47 14 -608q-131 -156 -210 -232q-41 -2 -98 -2l-275 2l-92 3z" />
    <glyph glyph-name="afii10108" unicode="&#x45b;" horiz-adv-x="1142"
d="M559 279v-289l-280 -6l8 510q0 48 2 288t0 357q-178 10 -258 2q4 95 4 161t-4 152q605 0 770 6q2 -98 -6 -325q-164 0 -228 4q-2 -139 -2 -267q113 4 312 -2q36 -36 155 -172q-8 -345 8 -716q-47 4 -145 1t-135 -1q0 375 14 690q-145 6 -221 2q6 -78 6 -395z" />
    <glyph glyph-name="afii10109" unicode="&#x45c;" horiz-adv-x="991"
d="M435 1534l-89 2q-66 0 -86 4l205 375q164 16 344 6l-334 -385q-16 -2 -40 -2zM82 -12q0 63 7 252t7 655t-6 541q90 4 148 4l114 2q-10 -96 -13 -298t-5 -276q125 0 155 -2q3 35 11 284t10 286q29 2 177 4t271 12l-8 -268q-25 0 -192 10q-8 -72 -15 -307
q-47 -66 -118 -119v-10q25 -16 119 -60t108 -53q16 -99 20 -187q4 -89 8 -125t15 -157q10 -121 16 -174q-25 -4 -295 -10q0 160 -28 624q-129 -12 -250 2q2 -27 11 -246t9 -390q-176 4 -276 6z" />
    <glyph glyph-name="afii10110" unicode="&#x45e;" horiz-adv-x="1003"
d="M31 1434l301 14q57 -207 104 -448t56 -392h10q35 109 99 403q65 294 89 447q8 0 121 -12t162 -12q-160 -625 -330 -1112q-16 -47 -65 -202t-68 -198q-199 49 -285 58q158 340 162 352q-70 162 -166 504t-190 598zM881 1663q0 -90 -2 -137q-121 8 -355 5t-374 7h-3
q10 240 7 305q57 0 130 1t91 1q-6 -33 -17 -145q76 4 90 5t95 -4q80 -5 94 -5q4 49 6 102l240 2q-2 -47 -2 -137z" />
    <glyph glyph-name="afii10193" unicode="&#x45f;" horiz-adv-x="1142"
d="M702 1454l338 -6q0 -956 -30 -1438q-209 -16 -320 -18q0 -113 -12 -297q-55 0 -138 5t-139 3q6 131 29 313l-303 -16q-8 245 -17 771q-8 525 -6 695q137 0 248 -6q8 -213 6 -600t-8 -489q49 8 179 10t180 -4q-8 88 -12 422q-3 334 5 655z" />
    <glyph glyph-name="afii10050" unicode="&#x490;" horiz-adv-x="851"
d="M575 1438q0 74 11 262q116 6 245 -6q-20 -131 -32 -447v-2l-215 -2q-119 0 -213 4q18 -190 31 -654t20 -583q-43 -4 -138 -5t-141 -7q-6 84 -24 712t-15 720q180 8 471 8z" />
    <glyph glyph-name="afii10098" unicode="&#x491;" horiz-adv-x="862"
d="M575 1438q0 74 11 262q116 6 245 -6q-20 -131 -32 -447v-2l-215 -2q-119 0 -213 4q18 -190 31 -654t20 -583q-43 -4 -138 -5t-141 -7q-6 84 -24 712t-15 720q180 8 471 8z" />
    <glyph glyph-name="endash" unicode="&#x2013;" horiz-adv-x="960"
d="M897 774l2 -127q0 -33 -4 -74h-92q-90 2 -230 2l-512 -6q0 92 17 209h170l235 4q217 0 414 -8z" />
    <glyph glyph-name="emdash" unicode="&#x2014;" horiz-adv-x="1445"
d="M68 707l4 75q130 8 546 8t760 -8q6 -61 6 -86l-2 -118l-176 2q-190 0 -645 -5q-328 0 -495 9q0 76 2 123z" />
    <glyph glyph-name="quoteleft" unicode="&#x2018;" horiz-adv-x="411"
d="M350 1239q0 -31 -6 -86q-33 0 -131 5t-152 3q8 66 10 149q1 83 5 132q106 174 131 207q47 -27 80 -41q-23 -70 -84 -172l55 -2q57 0 92 -4v-191z" />
    <glyph glyph-name="quoteright" unicode="&#x2019;" horiz-adv-x="411"
d="M68 1442q33 0 131 -5t151 -3q-8 -66 -9 -149t-5 -132q-106 -174 -131 -207q-47 27 -80 41q23 70 84 172h-57q-55 2 -91 6v191q1 31 7 86z" />
    <glyph glyph-name="quotedblleft" unicode="&#x201c;" horiz-adv-x="784"
d="M723 1239q0 -45 -4 -86q-33 0 -132 5t-153 3q8 215 15 281q106 174 131 207l82 -41q-2 -2 -24 -53t-63 -119q129 -6 148 -9v-188zM350 1239q0 -31 -6 -86q-33 0 -131 5t-152 3q8 66 10 149q1 83 5 132q106 174 131 207q47 -27 80 -41q-23 -70 -84 -172l55 -2q57 0 92 -4
v-191z" />
    <glyph glyph-name="quotedblright" unicode="&#x201d;" horiz-adv-x="784"
d="M66 1442q33 0 132 -5t152 -3q-8 -215 -14 -281q-106 -174 -131 -207l-82 41q2 2 21 48t65 124q-129 6 -148 8v189q1 45 5 86zM434 1356q0 31 6 86q33 0 131 -5t152 -3q-8 -66 -9 -149t-5 -132q-106 -174 -131 -207q-47 27 -80 41q23 70 84 172h-58q-55 2 -90 6v191z" />
    <glyph glyph-name="quotedblbase" unicode="&#x201e;" horiz-adv-x="784"
d="M66 258q33 0 132 -5t152 -3q-8 -215 -14 -281q-106 -174 -131 -207q-13 8 -29 16t-32 15q-16 8 -21 10q2 2 22 51t64 121q-129 6 -148 9v188q1 45 5 86zM434 172q0 31 6 86q33 0 131 -5t152 -3q-8 -66 -9 -149t-5 -132q-106 -174 -131 -207q-47 27 -80 41q23 70 84 172
h-58q-55 2 -90 7v190z" />
    <glyph glyph-name="dagger" unicode="&#x2020;" horiz-adv-x="886"
d="M319 1485l238 -6q0 -133 -2 -219l-8 -209q117 0 237 -19l-14 -225q-131 0 -229 2q-18 -731 -31 -973l-160 -4q-6 104 -6 148l-27 833h-215q4 49 0 227q82 6 217 7v438z" />
    <glyph glyph-name="bullet" unicode="&#x2022;" horiz-adv-x="808"
d="M608 741q0 -74 -4 -151l-6 -70q-30 -14 -196 -14t-197 6l12 195q0 122 8 188q39 -10 226 -10l151 4q6 -74 6 -148z" />
    <glyph glyph-name="ellipsis" unicode="&#x2026;" horiz-adv-x="1814"
d="M1476 242h77l112 2l6 -217v-54q-47 -10 -151 -10t-134 4q0 19 4 85t7 118q2 52 4 76q29 -4 75 -4zM233 242h77l112 2l6 -217v-54q-48 -10 -152 -10t-133 4q1 57 5 104t6 99t4 76q29 -4 75 -4zM861 242h78l112 2l6 -217v-54q-47 -10 -151 -10t-134 4q0 31 4 91t6 112t4 76
q29 -4 75 -4z" />
    <glyph glyph-name="Euro" unicode="&#x20ac;" horiz-adv-x="1046"
d="M-23 502q-1 4 11 74t10 112q57 4 96 4l2 76h-119q0 4 12 74q11 70 9 112q61 4 100 4l-8 293q27 23 123 101t156 131q270 -10 505 -15q6 -285 15 -419q-131 10 -287 6q-4 156 6 258l-139 -6q-49 -63 -94 -107q10 -133 4 -244h485q-6 -57 -35 -194q-123 0 -450 4l2 -76h483
l-35 -194q-113 0 -440 4q12 -225 10 -291q111 -6 224 -6q-8 106 -9 194l281 -6q0 -90 -6 -391q-293 -23 -625 -23q-23 27 -196 234q20 248 22 291h-113z" />
    <glyph glyph-name="afii61352" unicode="&#x2116;" horiz-adv-x="1705"
d="M397 256q0 -86 -4 -283q-100 23 -274 23q14 226 14 456t-9 408t-9 231t-13 334q184 10 281 11q8 -117 2 -271q184 -259 260 -405t92 -172q-4 98 -4 337q1 239 11 350q10 112 10 150q178 -16 264 -12l-4 -270l2 -322l-4 -428l-6 -411l-215 2q-45 0 -60 -2q-4 78 8 227
q-42 48 -69 86q-26 39 -44 65t-42 64q-25 38 -40 62t-42 70t-39 66t-40 68q-28 49 -36 62l6 -205q4 -205 4 -291zM1540 692q0 -2 -4 -70t0 -77q-42 -13 -178 -13t-228 13h-2q6 47 7 147h405zM1272 1094q0 -92 2 -187q41 10 80 6q-6 195 6 361q-57 -4 -92 2q4 -90 4 -182z
M1509 1427l33 -632q-124 -21 -258 -14q-133 7 -139 7q-11 110 -13 314t-10 313q231 0 387 12z" />
    <glyph glyph-name="trademark" unicode="&#x2122;" horiz-adv-x="1265"
d="M1024 1483q117 0 166 8q4 -508 14 -784q-34 -5 -178 -5q4 54 5 172t8 201q7 84 8 88h-5q-84 -162 -165 -258h-7q-94 135 -141 269h-6q18 -129 18 -275l4 -192q-20 2 -59 2l-131 -2q2 86 2 258l-2 387l-2 133q160 6 211 10q80 -160 139 -311h6q12 23 50 89t65 132v78z
M63 1381q0 80 -2 102q397 0 447 2q0 -80 -4 -211q-59 0 -125 4q4 -111 4 -176v-391q-29 -2 -97 -2h-93l2 268q0 14 4 299q-68 4 -138 0q2 25 2 105z" />
    <glyph glyph-name="minus" unicode="&#x2212;"
d="M932 594l-852 6q4 41 0 186q110 9 448 2h418q-14 -186 -14 -194z" />
    <glyph glyph-name="radical" unicode="&#x221a;"
d="M217 653q35 -143 53 -299t21 -209q142 391 333 854t228 555q18 -8 120 -34t124 -39q-438 -975 -727 -1604q-10 2 -107 16t-112 21q-4 30 -20 102t-21 90q-4 18 -35 156q-31 137 -64 361q96 22 207 30z" />
    <glyph glyph-name="infinity" unicode="&#x221e;"
d="M391 662q0 68 21 145q-98 -10 -166 -10t-109 8l15 -240q143 4 243 -6q-4 35 -4 103zM608 681q0 -34 -2 -85q86 14 219 14q-6 111 11 189l-152 -6q-49 0 -70 2q-6 -80 -6 -114zM25 629q0 158 2 248q23 29 67 73t53 51q357 0 447 15q8 -55 6 -123q190 10 399 10
q4 -55 13 -342q-35 -39 -129 -137l-150 4q-33 0 -160 6q0 -43 -4 -80l-540 -8q-4 125 -4 283z" />
    <glyph glyph-name="approxequal" unicode="&#x2248;"
d="M784 702l-221 11q-35 23 -134 81t-120 74q-8 -14 -102 -159l-191 129q87 135 129 198q139 -8 263 -4q193 -109 231 -135l70 111q20 33 32 43q6 -2 44 -31q38 -30 81 -58t70 -51q-23 -23 -35 -42t-60 -86t-57 -81zM84 487q97 147 129 201q123 -10 262 -6q170 -92 232 -133
l71 108q12 23 31 45q4 -2 42 -30q37 -28 91 -66q54 -37 62 -43q-18 -18 -85 -112t-67 -97q-37 2 -112 4t-107 4q-41 27 -116 70t-95 57q-20 13 -30 19t-15 12q-12 -25 -52 -85t-49 -75z" />
    <glyph glyph-name="notequal" unicode="&#x2260;"
d="M672 453q-112 0 -195 -4q-43 -90 -143 -308q-29 17 -75 35t-79 35l125 231q-39 -2 -119 -2l-4 207h105l129 2l49 99h-33l-256 -5q0 10 6 201q20 2 90 2l291 -8l160 317q44 -18 123 -65q-47 -86 -133 -254l125 2q-2 -20 -15 -201q-72 0 -207 6l-43 -90l275 -4
q-4 -110 -4 -192q-60 -4 -172 -4z" />
    <glyph glyph-name="lessequal" unicode="&#x2264;"
d="M735 1485l64 -47q66 -49 94 -74q-315 -348 -492 -502q83 -76 227 -230t226 -226q-119 -98 -178 -156q-76 104 -275 311t-268 293q135 124 283 287t197 215q49 51 75 80q27 29 47 49zM522 178h357q-15 -186 -15 -194l-729 6q4 41 0 186q97 8 215 5q119 -3 172 -3z" />
    <glyph glyph-name="greaterequal" unicode="&#x2265;"
d="M526 168h357q-15 -187 -15 -195l-729 7q4 41 0 186q97 8 215 5q119 -3 172 -3zM895 856q-37 -39 -227 -233t-353 -383q-41 53 -157 157q319 289 463 453q-111 110 -193 186t-299 287q27 17 78 71t86 83q96 -95 301 -311t301 -310z" />
    <glyph glyph-name="CR" horiz-adv-x="530"
 />
    </font>
</defs>
</svg>
